<svg version="1.1" viewBox="0.0 0.0 1089.0 673.0" fill="none" stroke="none" stroke-linecap="square" stroke-miterlimit="10" width="1089" height="673" xmlns:xlink="http://www.w3.org/1999/xlink" xmlns="http://www.w3.org/2000/svg"><path fill="#ffffff" d="M0 0L1089.0 0L1089.0 673.0L0 673.0L0 0Z" fill-rule="nonzero"/><path stroke="#333333" stroke-width="1.0" stroke-linecap="butt" d="M67.5 632.5L1055.5 632.5" fill-rule="nonzero"/><path stroke="#cccccc" stroke-width="1.0" stroke-linecap="butt" d="M67.5 505.5L1055.5 505.5" fill-rule="nonzero"/><path stroke="#cccccc" stroke-width="1.0" stroke-linecap="butt" d="M67.5 377.5L1055.5 377.5" fill-rule="nonzero"/><path stroke="#cccccc" stroke-width="1.0" stroke-linecap="butt" d="M67.5 250.5L1055.5 250.5" fill-rule="nonzero"/><path stroke="#cccccc" stroke-width="1.0" stroke-linecap="butt" d="M67.5 123.5L1055.5 123.5" fill-rule="nonzero"/><clipPath id="id_0"><path d="M67.65 123.51667L1055.35 123.51667L1055.35 632.35L67.65 632.35L67.65 123.51667Z" clip-rule="nonzero"/></clipPath><path stroke="#4285f4" stroke-width="2.0" stroke-linecap="butt" clip-path="url(#id_0)" d="M73.67256 530.5833C73.67256 530.5833 81.702644 482.4138 85.71768 469.52335C89.73273 456.6329 93.747765 458.9396 97.7628 453.24066C101.77785 447.54175 105.792885 443.29468 109.80793 435.32974C113.82297 427.3648 117.838005 415.23013 121.85305 405.45105C125.86809 395.67194 129.88313 385.13937 133.89818 376.65515C137.91321 368.17093 141.92825 361.3783 145.9433 354.54572C149.95833 347.71317 153.97337 341.86716 157.98842 335.6597C162.00345 329.45224 166.0185 323.2582 170.03354 317.30103C174.04858 311.34384 178.06361 305.4156 182.07866 299.91666C186.0937 294.41772 190.10873 289.23987 194.12378 284.3074C198.13882 279.3749 202.15385 274.7852 206.1689 270.32178C210.18394 265.85837 214.19899 261.62012 218.21402 257.52692C222.22906 253.43373 226.24411 249.51315 230.25914 245.7626C234.27419 242.01205 238.28923 238.44164 242.30428 235.0236C246.3193 231.60558 250.33435 228.36693 254.3494 225.25441C258.36444 222.14189 262.3795 219.18842 266.3945 216.3485C270.40955 213.50858 274.4246 210.80795 278.43964 208.21489C282.45468 205.62183 286.46973 203.15628 290.48474 200.79012C294.4998 198.42395 298.51483 196.17613 302.52988 194.0179C306.54492 191.85968 310.55997 189.80965 314.575 187.84076C318.59003 185.87189 322.60507 184.0011 326.62012 182.20459C330.63516 180.40808 334.6502 178.7009 338.66525 177.0617C342.6803 175.42252 346.6953 173.86499 350.71036 172.36948C354.7254 170.87396 358.74045 169.45305 362.7555 168.08862C366.77054 166.72418 370.78558 165.42778 374.8006 164.18292C378.81564 162.93805 382.8307 161.7552 386.84573 160.61942C390.86078 159.48361 394.87582 158.40442 398.89084 157.36815C402.90588 156.33188 406.92093 155.34726 410.93597 154.4018C414.95102 153.45634 418.96606 152.558 422.9811 151.69539C426.99612 150.83278 431.01117 150.01317 435.0262 149.22615C439.04126 148.43912 443.0563 147.69133 447.07135 146.97327C451.0864 146.25522 455.1014 145.57294 459.11646 144.9178C463.1315 144.26268 467.14655 143.64018 471.1616 143.04247C475.17664 142.44473 479.19168 141.8768 483.2067 141.33145C487.22174 140.7861 491.2368 140.26793 495.25183 139.77037C499.26688 139.27281 503.28192 138.80005 507.29694 138.3461C511.31198 137.89214 515.327 137.4608 519.3421 137.04662C523.3571 136.63243 527.37213 136.23889 531.3872 135.86101C535.4022 135.48312 539.4173 135.12407 543.4323 134.7793C547.4474 134.43452 551.4624 134.10693 555.4774 133.79237C559.4925 133.47781 563.5075 133.17892 567.5226 132.89194C571.5376 132.60493 575.5526 132.33224 579.5677 132.07039C583.5827 131.80855 587.5978 131.55975 591.6128 131.32085C595.62787 131.08194 599.6429 130.85495 603.6579 130.63698C607.673 130.419 611.688 130.21191 615.70306 130.01305C619.7181 129.81418 623.73315 129.62521 627.74817 129.44377C631.7632 129.26233 635.77826 129.08994 639.7933 128.9244C643.80835 128.75885 647.82336 128.60156 651.83844 128.45053C655.85345 128.29948 659.86847 128.15598 663.88354 128.01817C667.89856 127.88038 671.91364 127.74944 675.92865 127.62372C679.9437 127.49799 683.95874 127.37853 687.97375 127.263824C691.98883 127.14912 696.00385 127.04012 700.0189 126.93547C704.03394 126.83081 708.049 126.73137 712.064 126.63589C716.07904 126.5404 720.0941 126.44967 724.10913 126.36256C728.1242 126.27544 732.1392 126.19266 736.1543 126.113174C740.1693 126.03369 744.1843 125.95817 748.1994 125.88564C752.2144 125.813126 756.2295 125.744225 760.2445 125.678055C764.2596 125.61189 768.2746 125.54903 772.2896 125.488655C776.3047 125.42829 780.3197 125.37093 784.3348 125.31586C788.3498 125.26078 792.3648 125.20845 796.3799 125.158195C800.3949 125.10795 804.41 125.060196 808.425 125.01435C812.44006 124.968506 816.4551 124.92494 820.4701 124.88311C824.48517 124.841286 828.5002 124.80154 832.51526 124.763374C836.5303 124.72521 840.54535 124.68895 844.56036 124.65413C848.5754 124.61931 852.59045 124.58622 856.60547 124.55445C860.62054 124.52268 864.63556 124.4925 868.65063 124.46352C872.66565 124.43453 876.68066 124.40699 880.69574 124.38055C884.71075 124.354095 888.7258 124.32897 892.74084 124.30484C896.7559 124.280716 900.77094 124.25779 904.78595 124.23578C908.801 124.21376 912.81604 124.19285 916.8311 124.17276C920.8461 124.15268 924.8612 124.1336 928.8762 124.11527C932.89124 124.09695 936.9063 124.07954 940.9213 124.06281C944.9364 124.0461 948.9514 124.03021 952.9665 124.01496C956.9815 123.9997 960.9965 123.98521 965.0116 123.97129C969.0266 123.957375 973.0417 123.94415 977.0567 123.93146C981.0718 123.918755 985.0868 123.90669 989.1018 123.89511C993.1169 123.88352 997.1319 123.87251 1001.147 123.861946C1005.162 123.85138 1009.17706 123.84133 1013.1921 123.83169C1017.2071 123.822044 1021.22217 123.81288 1025.2372 123.804085C1029.2522 123.79529 1033.2673 123.78693 1037.2823 123.7789C1041.2974 123.770874 1049.3274 123.75592 1049.3274 123.75592" fill-rule="nonzero"/><path stroke="#ea4335" stroke-width="2.0" stroke-linecap="butt" clip-path="url(#id_0)" d="M73.67256 428.81668C73.67256 428.81668 81.702644 321.45282 85.71768 296.52C89.73273 271.58716 93.747765 283.85004 97.7628 279.21967C101.77785 274.5893 105.792885 277.23013 109.80793 268.7377C113.82297 260.24527 117.838005 241.07294 121.85305 228.26509C125.86809 215.45726 129.88313 200.5606 133.89818 191.89064C137.91321 183.22067 141.92825 180.19211 145.9433 176.24533C149.95833 172.29857 153.97337 171.26949 157.98842 168.21C162.00345 165.15054 166.0185 161.26965 170.03354 157.88853C174.04858 154.50742 178.06361 150.62059 182.07866 147.92328C186.0937 145.22597 190.10873 143.35954 194.12378 141.70468C198.13882 140.04984 202.15385 139.14919 206.1689 137.99414C210.18394 136.83908 214.19899 135.79568 218.21402 134.77437C222.22906 133.75305 226.24411 132.70438 230.25914 131.86627C234.27419 131.02815 238.28923 130.33586 242.30428 129.7457C246.3193 129.15553 250.33435 128.74379 254.3494 128.3253C258.36444 127.90682 262.3795 127.567795 266.3945 127.2348C270.40955 126.90182 274.4246 126.59488 278.43964 126.327385C282.45468 126.05988 286.46973 125.82963 290.48474 125.62983C294.4998 125.43004 298.51483 125.27457 302.52988 125.1286C306.54492 124.982635 310.55997 124.86576 314.575 124.754036C318.59003 124.64232 322.60507 124.545784 326.62012 124.45828C330.63516 124.37078 334.6502 124.2957 338.66525 124.22902C342.6803 124.16233 346.6953 124.10796 350.71036 124.05818C354.7254 124.00841 358.74045 123.968056 362.7555 123.93034C366.77054 123.89263 370.78558 123.86098 374.8006 123.831924C378.81564 123.802864 386.84573 123.75601 386.84573 123.75601" fill-rule="nonzero"/><path fill="#000000" fill-opacity="0.0" clip-path="url(#id_0)" d="M76.67256 530.5833C76.67256 532.2402 75.329414 533.5833 73.67256 533.5833C72.01571 533.5833 70.67256 532.2402 70.67256 530.5833C70.67256 528.92645 72.01571 527.5833 73.67256 527.5833C75.329414 527.5833 76.67256 528.92645 76.67256 530.5833Z" fill-rule="nonzero"/><path fill="#000000" fill-opacity="0.0" clip-path="url(#id_0)" d="M88.71768 469.52335C88.71768 471.18018 87.374535 472.52335 85.71768 472.52335C84.06083 472.52335 82.71768 471.18018 82.71768 469.52335C82.71768 467.8665 84.06083 466.52335 85.71768 466.52335C87.374535 466.52335 88.71768 467.8665 88.71768 469.52335Z" fill-rule="nonzero"/><path fill="#000000" fill-opacity="0.0" clip-path="url(#id_0)" d="M100.7628 453.24066C100.7628 454.89752 99.41966 456.24066 97.7628 456.24066C96.10595 456.24066 94.7628 454.89752 94.7628 453.24066C94.7628 451.5838 96.10595 450.24066 97.7628 450.24066C99.41966 450.24066 100.7628 451.5838 100.7628 453.24066Z" fill-rule="nonzero"/><path fill="#000000" fill-opacity="0.0" clip-path="url(#id_0)" d="M112.80793 435.32974C112.80793 436.9866 111.46478 438.32974 109.80793 438.32974C108.15107 438.32974 106.80793 436.9866 106.80793 435.32974C106.80793 433.67288 108.15107 432.32974 109.80793 432.32974C111.46478 432.32974 112.80793 433.67288 112.80793 435.32974Z" fill-rule="nonzero"/><path fill="#000000" fill-opacity="0.0" clip-path="url(#id_0)" d="M124.85305 405.45105C124.85305 407.10788 123.5099 408.45105 121.85305 408.45105C120.1962 408.45105 118.85305 407.10788 118.85305 405.45105C118.85305 403.7942 120.1962 402.45105 121.85305 402.45105C123.5099 402.45105 124.85305 403.7942 124.85305 405.45105Z" fill-rule="nonzero"/><path fill="#000000" fill-opacity="0.0" clip-path="url(#id_0)" d="M136.89818 376.65515C136.89818 378.312 135.55502 379.65515 133.89818 379.65515C132.24132 379.65515 130.89818 378.312 130.89818 376.65515C130.89818 374.9983 132.24132 373.65515 133.89818 373.65515C135.55502 373.65515 136.89818 374.9983 136.89818 376.65515Z" fill-rule="nonzero"/><path fill="#000000" fill-opacity="0.0" clip-path="url(#id_0)" d="M148.9433 354.54572C148.9433 356.20258 147.60014 357.54572 145.9433 357.54572C144.28644 357.54572 142.9433 356.20258 142.9433 354.54572C142.9433 352.8889 144.28644 351.54572 145.9433 351.54572C147.60014 351.54572 148.9433 352.8889 148.9433 354.54572Z" fill-rule="nonzero"/><path fill="#000000" fill-opacity="0.0" clip-path="url(#id_0)" d="M160.98842 335.6597C160.98842 337.31656 159.64526 338.6597 157.98842 338.6597C156.33156 338.6597 154.98842 337.31656 154.98842 335.6597C154.98842 334.00284 156.33156 332.6597 157.98842 332.6597C159.64526 332.6597 160.98842 334.00284 160.98842 335.6597Z" fill-rule="nonzero"/><path fill="#000000" fill-opacity="0.0" clip-path="url(#id_0)" d="M173.03354 317.30103C173.03354 318.9579 171.69038 320.30103 170.03354 320.30103C168.37668 320.30103 167.03354 318.9579 167.03354 317.30103C167.03354 315.64417 168.37668 314.30103 170.03354 314.30103C171.69038 314.30103 173.03354 315.64417 173.03354 317.30103Z" fill-rule="nonzero"/><path fill="#000000" fill-opacity="0.0" clip-path="url(#id_0)" d="M185.07866 299.91666C185.07866 301.57352 183.73552 302.91666 182.07866 302.91666C180.4218 302.91666 179.07866 301.57352 179.07866 299.91666C179.07866 298.2598 180.4218 296.91666 182.07866 296.91666C183.73552 296.91666 185.07866 298.2598 185.07866 299.91666Z" fill-rule="nonzero"/><path fill="#000000" fill-opacity="0.0" clip-path="url(#id_0)" d="M197.12378 284.3074C197.12378 285.96423 195.78064 287.3074 194.12378 287.3074C192.46692 287.3074 191.12378 285.96423 191.12378 284.3074C191.12378 282.65054 192.46692 281.3074 194.12378 281.3074C195.78064 281.3074 197.12378 282.65054 197.12378 284.3074Z" fill-rule="nonzero"/><path fill="#000000" fill-opacity="0.0" clip-path="url(#id_0)" d="M209.1689 270.32178C209.1689 271.97864 207.82576 273.32178 206.1689 273.32178C204.51205 273.32178 203.1689 271.97864 203.1689 270.32178C203.1689 268.66492 204.51205 267.32178 206.1689 267.32178C207.82576 267.32178 209.1689 268.66492 209.1689 270.32178Z" fill-rule="nonzero"/><path fill="#000000" fill-opacity="0.0" clip-path="url(#id_0)" d="M221.21402 257.52692C221.21402 259.18378 219.87088 260.52692 218.21402 260.52692C216.55717 260.52692 215.21402 259.18378 215.21402 257.52692C215.21402 255.87007 216.55717 254.52692 218.21402 254.52692C219.87088 254.52692 221.21402 255.87007 221.21402 257.52692Z" fill-rule="nonzero"/><path fill="#000000" fill-opacity="0.0" clip-path="url(#id_0)" d="M233.25914 245.7626C233.25914 247.41946 231.916 248.7626 230.25914 248.7626C228.6023 248.7626 227.25914 247.41946 227.25914 245.7626C227.25914 244.10576 228.6023 242.7626 230.25914 242.7626C231.916 242.7626 233.25914 244.10576 233.25914 245.7626Z" fill-rule="nonzero"/><path fill="#000000" fill-opacity="0.0" clip-path="url(#id_0)" d="M245.30428 235.0236C245.30428 236.68047 243.96112 238.0236 242.30428 238.0236C240.64742 238.0236 239.30428 236.68047 239.30428 235.0236C239.30428 233.36676 240.64742 232.0236 242.30428 232.0236C243.96112 232.0236 245.30428 233.36676 245.30428 235.0236Z" fill-rule="nonzero"/><path fill="#000000" fill-opacity="0.0" clip-path="url(#id_0)" d="M257.3494 225.25441C257.3494 226.91125 256.00626 228.25441 254.3494 228.25441C252.69254 228.25441 251.3494 226.91125 251.3494 225.25441C251.3494 223.59755 252.69254 222.25441 254.3494 222.25441C256.00626 222.25441 257.3494 223.59755 257.3494 225.25441Z" fill-rule="nonzero"/><path fill="#000000" fill-opacity="0.0" clip-path="url(#id_0)" d="M269.3945 216.3485C269.3945 218.00534 268.05136 219.3485 266.3945 219.3485C264.73767 219.3485 263.3945 218.00534 263.3945 216.3485C263.3945 214.69164 264.73767 213.3485 266.3945 213.3485C268.05136 213.3485 269.3945 214.69164 269.3945 216.3485Z" fill-rule="nonzero"/><path fill="#000000" fill-opacity="0.0" clip-path="url(#id_0)" d="M281.43964 208.21489C281.43964 209.87173 280.0965 211.21489 278.43964 211.21489C276.78278 211.21489 275.43964 209.87173 275.43964 208.21489C275.43964 206.55803 276.78278 205.21489 278.43964 205.21489C280.0965 205.21489 281.43964 206.55803 281.43964 208.21489Z" fill-rule="nonzero"/><path fill="#000000" fill-opacity="0.0" clip-path="url(#id_0)" d="M293.48474 200.79012C293.48474 202.44698 292.1416 203.79012 290.48474 203.79012C288.8279 203.79012 287.48474 202.44698 287.48474 200.79012C287.48474 199.13327 288.8279 197.79012 290.48474 197.79012C292.1416 197.79012 293.48474 199.13327 293.48474 200.79012Z" fill-rule="nonzero"/><path fill="#000000" fill-opacity="0.0" clip-path="url(#id_0)" d="M305.52988 194.0179C305.52988 195.67476 304.18674 197.0179 302.52988 197.0179C300.87302 197.0179 299.52988 195.67476 299.52988 194.0179C299.52988 192.36105 300.87302 191.0179 302.52988 191.0179C304.18674 191.0179 305.52988 192.36105 305.52988 194.0179Z" fill-rule="nonzero"/><path fill="#000000" fill-opacity="0.0" clip-path="url(#id_0)" d="M317.575 187.84076C317.575 189.49762 316.23184 190.84076 314.575 190.84076C312.91815 190.84076 311.575 189.49762 311.575 187.84076C311.575 186.18391 312.91815 184.84076 314.575 184.84076C316.23184 184.84076 317.575 186.18391 317.575 187.84076Z" fill-rule="nonzero"/><path fill="#000000" fill-opacity="0.0" clip-path="url(#id_0)" d="M329.62012 182.20459C329.62012 183.86145 328.27698 185.20459 326.62012 185.20459C324.96326 185.20459 323.62012 183.86145 323.62012 182.20459C323.62012 180.54774 324.96326 179.20459 326.62012 179.20459C328.27698 179.20459 329.62012 180.54774 329.62012 182.20459Z" fill-rule="nonzero"/><path fill="#000000" fill-opacity="0.0" clip-path="url(#id_0)" d="M341.66525 177.0617C341.66525 178.71857 340.3221 180.0617 338.66525 180.0617C337.0084 180.0617 335.66525 178.71857 335.66525 177.0617C335.66525 175.40485 337.0084 174.0617 338.66525 174.0617C340.3221 174.0617 341.66525 175.40485 341.66525 177.0617Z" fill-rule="nonzero"/><path fill="#000000" fill-opacity="0.0" clip-path="url(#id_0)" d="M353.71036 172.36948C353.71036 174.02634 352.36722 175.36948 350.71036 175.36948C349.0535 175.36948 347.71036 174.02634 347.71036 172.36948C347.71036 170.71262 349.0535 169.36948 350.71036 169.36948C352.36722 169.36948 353.71036 170.71262 353.71036 172.36948Z" fill-rule="nonzero"/><path fill="#000000" fill-opacity="0.0" clip-path="url(#id_0)" d="M365.7555 168.08862C365.7555 169.74547 364.41235 171.08862 362.7555 171.08862C361.09863 171.08862 359.7555 169.74547 359.7555 168.08862C359.7555 166.43176 361.09863 165.08862 362.7555 165.08862C364.41235 165.08862 365.7555 166.43176 365.7555 168.08862Z" fill-rule="nonzero"/><path fill="#000000" fill-opacity="0.0" clip-path="url(#id_0)" d="M377.8006 164.18292C377.8006 165.83977 376.45746 167.18292 374.8006 167.18292C373.14377 167.18292 371.8006 165.83977 371.8006 164.18292C371.8006 162.52606 373.14377 161.18292 374.8006 161.18292C376.45746 161.18292 377.8006 162.52606 377.8006 164.18292Z" fill-rule="nonzero"/><path fill="#000000" fill-opacity="0.0" clip-path="url(#id_0)" d="M389.84573 160.61942C389.84573 162.27626 388.5026 163.61942 386.84573 163.61942C385.18887 163.61942 383.84573 162.27626 383.84573 160.61942C383.84573 158.96255 385.18887 157.61942 386.84573 157.61942C388.5026 157.61942 389.84573 158.96255 389.84573 160.61942Z" fill-rule="nonzero"/><path fill="#000000" fill-opacity="0.0" clip-path="url(#id_0)" d="M401.89084 157.36815C401.89084 159.025 400.5477 160.36815 398.89084 160.36815C397.234 160.36815 395.89084 159.025 395.89084 157.36815C395.89084 155.71129 397.234 154.36815 398.89084 154.36815C400.5477 154.36815 401.89084 155.71129 401.89084 157.36815Z" fill-rule="nonzero"/><path fill="#000000" fill-opacity="0.0" clip-path="url(#id_0)" d="M413.93597 154.4018C413.93597 156.05865 412.59283 157.4018 410.93597 157.4018C409.2791 157.4018 407.93597 156.05865 407.93597 154.4018C407.93597 152.74495 409.2791 151.4018 410.93597 151.4018C412.59283 151.4018 413.93597 152.74495 413.93597 154.4018Z" fill-rule="nonzero"/><path fill="#000000" fill-opacity="0.0" clip-path="url(#id_0)" d="M425.9811 151.69539C425.9811 153.35225 424.63794 154.69539 422.9811 154.69539C421.32425 154.69539 419.9811 153.35225 419.9811 151.69539C419.9811 150.03854 421.32425 148.69539 422.9811 148.69539C424.63794 148.69539 425.9811 150.03854 425.9811 151.69539Z" fill-rule="nonzero"/><path fill="#000000" fill-opacity="0.0" clip-path="url(#id_0)" d="M438.0262 149.22615C438.0262 150.883 436.68307 152.22615 435.0262 152.22615C433.36935 152.22615 432.0262 150.883 432.0262 149.22615C432.0262 147.56929 433.36935 146.22615 435.0262 146.22615C436.68307 146.22615 438.0262 147.56929 438.0262 149.22615Z" fill-rule="nonzero"/><path fill="#000000" fill-opacity="0.0" clip-path="url(#id_0)" d="M450.07135 146.97327C450.07135 148.63013 448.7282 149.97327 447.07135 149.97327C445.4145 149.97327 444.07135 148.63013 444.07135 146.97327C444.07135 145.3164 445.4145 143.97327 447.07135 143.97327C448.7282 143.97327 450.07135 145.3164 450.07135 146.97327Z" fill-rule="nonzero"/><path fill="#000000" fill-opacity="0.0" clip-path="url(#id_0)" d="M462.11646 144.9178C462.11646 146.57466 460.77332 147.9178 459.11646 147.9178C457.4596 147.9178 456.11646 146.57466 456.11646 144.9178C456.11646 143.26096 457.4596 141.9178 459.11646 141.9178C460.77332 141.9178 462.11646 143.26096 462.11646 144.9178Z" fill-rule="nonzero"/><path fill="#000000" fill-opacity="0.0" clip-path="url(#id_0)" d="M474.1616 143.04247C474.1616 144.69933 472.81845 146.04247 471.1616 146.04247C469.50473 146.04247 468.1616 144.69933 468.1616 143.04247C468.1616 141.3856 469.50473 140.04247 471.1616 140.04247C472.81845 140.04247 474.1616 141.3856 474.1616 143.04247Z" fill-rule="nonzero"/><path fill="#000000" fill-opacity="0.0" clip-path="url(#id_0)" d="M486.2067 141.33145C486.2067 142.98831 484.86356 144.33145 483.2067 144.33145C481.54987 144.33145 480.2067 142.98831 480.2067 141.33145C480.2067 139.6746 481.54987 138.33145 483.2067 138.33145C484.86356 138.33145 486.2067 139.6746 486.2067 141.33145Z" fill-rule="nonzero"/><path fill="#000000" fill-opacity="0.0" clip-path="url(#id_0)" d="M498.25183 139.77037C498.25183 141.42723 496.9087 142.77037 495.25183 142.77037C493.59497 142.77037 492.25183 141.42723 492.25183 139.77037C492.25183 138.11353 493.59497 136.77037 495.25183 136.77037C496.9087 136.77037 498.25183 138.11353 498.25183 139.77037Z" fill-rule="nonzero"/><path fill="#000000" fill-opacity="0.0" clip-path="url(#id_0)" d="M510.29694 138.3461C510.29694 140.00294 508.9538 141.3461 507.29694 141.3461C505.6401 141.3461 504.29694 140.00294 504.29694 138.3461C504.29694 136.68924 505.6401 135.3461 507.29694 135.3461C508.9538 135.3461 510.29694 136.68924 510.29694 138.3461Z" fill-rule="nonzero"/><path fill="#000000" fill-opacity="0.0" clip-path="url(#id_0)" d="M522.3421 137.04662C522.3421 138.70348 520.9989 140.04662 519.3421 140.04662C517.68524 140.04662 516.3421 138.70348 516.3421 137.04662C516.3421 135.38976 517.68524 134.04662 519.3421 134.04662C520.9989 134.04662 522.3421 135.38976 522.3421 137.04662Z" fill-rule="nonzero"/><path fill="#000000" fill-opacity="0.0" clip-path="url(#id_0)" d="M534.3872 135.86101C534.3872 137.51787 533.04407 138.86101 531.3872 138.86101C529.73035 138.86101 528.3872 137.51787 528.3872 135.86101C528.3872 134.20416 529.73035 132.86101 531.3872 132.86101C533.04407 132.86101 534.3872 134.20416 534.3872 135.86101Z" fill-rule="nonzero"/><path fill="#000000" fill-opacity="0.0" clip-path="url(#id_0)" d="M546.4323 134.7793C546.4323 136.43616 545.0892 137.7793 543.4323 137.7793C541.77545 137.7793 540.4323 136.43616 540.4323 134.7793C540.4323 133.12245 541.77545 131.7793 543.4323 131.7793C545.0892 131.7793 546.4323 133.12245 546.4323 134.7793Z" fill-rule="nonzero"/><path fill="#000000" fill-opacity="0.0" clip-path="url(#id_0)" d="M558.4774 133.79237C558.4774 135.44923 557.1343 136.79237 555.4774 136.79237C553.82056 136.79237 552.4774 135.44923 552.4774 133.79237C552.4774 132.13551 553.82056 130.79237 555.4774 130.79237C557.1343 130.79237 558.4774 132.13551 558.4774 133.79237Z" fill-rule="nonzero"/><path fill="#000000" fill-opacity="0.0" clip-path="url(#id_0)" d="M570.5226 132.89194C570.5226 134.54878 569.17944 135.89194 567.5226 135.89194C565.8657 135.89194 564.5226 134.54878 564.5226 132.89194C564.5226 131.23508 565.8657 129.89194 567.5226 129.89194C569.17944 129.89194 570.5226 131.23508 570.5226 132.89194Z" fill-rule="nonzero"/><path fill="#000000" fill-opacity="0.0" clip-path="url(#id_0)" d="M582.5677 132.07039C582.5677 133.72725 581.22455 135.07039 579.5677 135.07039C577.9108 135.07039 576.5677 133.72725 576.5677 132.07039C576.5677 130.41354 577.9108 129.07039 579.5677 129.07039C581.22455 129.07039 582.5677 130.41354 582.5677 132.07039Z" fill-rule="nonzero"/><path fill="#000000" fill-opacity="0.0" clip-path="url(#id_0)" d="M594.6128 131.32085C594.6128 132.9777 593.26965 134.32085 591.6128 134.32085C589.95593 134.32085 588.6128 132.9777 588.6128 131.32085C588.6128 129.66399 589.95593 128.32085 591.6128 128.32085C593.26965 128.32085 594.6128 129.66399 594.6128 131.32085Z" fill-rule="nonzero"/><path fill="#000000" fill-opacity="0.0" clip-path="url(#id_0)" d="M606.6579 130.63698C606.6579 132.29384 605.31476 133.63698 603.6579 133.63698C602.0011 133.63698 600.6579 132.29384 600.6579 130.63698C600.6579 128.98013 602.0011 127.63698 603.6579 127.63698C605.31476 127.63698 606.6579 128.98013 606.6579 130.63698Z" fill-rule="nonzero"/><path fill="#000000" fill-opacity="0.0" clip-path="url(#id_0)" d="M618.70306 130.01305C618.70306 131.66989 617.3599 133.01305 615.70306 133.01305C614.0462 133.01305 612.70306 131.66989 612.70306 130.01305C612.70306 128.35619 614.0462 127.01304 615.70306 127.01304C617.3599 127.01304 618.70306 128.35619 618.70306 130.01305Z" fill-rule="nonzero"/><path fill="#000000" fill-opacity="0.0" clip-path="url(#id_0)" d="M630.74817 129.44377C630.74817 131.10063 629.405 132.44377 627.74817 132.44377C626.0913 132.44377 624.74817 131.10063 624.74817 129.44377C624.74817 127.78692 626.0913 126.44377 627.74817 126.44377C629.405 126.44377 630.74817 127.78692 630.74817 129.44377Z" fill-rule="nonzero"/><path fill="#000000" fill-opacity="0.0" clip-path="url(#id_0)" d="M642.7933 128.9244C642.7933 130.58125 641.45013 131.9244 639.7933 131.9244C638.1364 131.9244 636.7933 130.58125 636.7933 128.9244C636.7933 127.26754 638.1364 125.92439 639.7933 125.92439C641.45013 125.92439 642.7933 127.26754 642.7933 128.9244Z" fill-rule="nonzero"/><path fill="#000000" fill-opacity="0.0" clip-path="url(#id_0)" d="M654.83844 128.45053C654.83844 130.10738 653.49524 131.45053 651.83844 131.45053C650.1816 131.45053 648.83844 130.10738 648.83844 128.45053C648.83844 126.79367 650.1816 125.45052 651.83844 125.45052C653.49524 125.45052 654.83844 126.79367 654.83844 128.45053Z" fill-rule="nonzero"/><path fill="#000000" fill-opacity="0.0" clip-path="url(#id_0)" d="M666.88354 128.01817C666.88354 129.67503 665.5404 131.01817 663.88354 131.01817C662.2267 131.01817 660.88354 129.67503 660.88354 128.01817C660.88354 126.36133 662.2267 125.01818 663.88354 125.01818C665.5404 125.01818 666.88354 126.36133 666.88354 128.01817Z" fill-rule="nonzero"/><path fill="#000000" fill-opacity="0.0" clip-path="url(#id_0)" d="M678.92865 127.62372C678.92865 129.28058 677.5855 130.62372 675.92865 130.62372C674.2718 130.62372 672.92865 129.28058 672.92865 127.62372C672.92865 125.966866 674.2718 124.62372 675.92865 124.62372C677.5855 124.62372 678.92865 125.966866 678.92865 127.62372Z" fill-rule="nonzero"/><path fill="#000000" fill-opacity="0.0" clip-path="url(#id_0)" d="M690.97375 127.263824C690.97375 128.92068 689.6306 130.26382 687.97375 130.26382C686.31696 130.26382 684.97375 128.92068 684.97375 127.263824C684.97375 125.60697 686.31696 124.263824 687.97375 124.263824C689.6306 124.263824 690.97375 125.60697 690.97375 127.263824Z" fill-rule="nonzero"/><path fill="#000000" fill-opacity="0.0" clip-path="url(#id_0)" d="M703.0189 126.93547C703.0189 128.59232 701.6758 129.93547 700.0189 129.93547C698.36206 129.93547 697.0189 128.59232 697.0189 126.93547C697.0189 125.27862 698.36206 123.93547 700.0189 123.93547C701.6758 123.93547 703.0189 125.27862 703.0189 126.93547Z" fill-rule="nonzero"/><path fill="#000000" fill-opacity="0.0" clip-path="url(#id_0)" d="M715.064 126.63589C715.064 128.29274 713.7209 129.63588 712.064 129.63588C710.40717 129.63588 709.064 128.29274 709.064 126.63589C709.064 124.979034 710.40717 123.63589 712.064 123.63589C713.7209 123.63589 715.064 124.979034 715.064 126.63589Z" fill-rule="nonzero"/><path fill="#000000" fill-opacity="0.0" clip-path="url(#id_0)" d="M727.10913 126.36256C727.10913 128.01941 725.766 129.36255 724.10913 129.36255C722.4523 129.36255 721.10913 128.01941 721.10913 126.36256C721.10913 124.705696 722.4523 123.36256 724.10913 123.36256C725.766 123.36256 727.10913 124.705696 727.10913 126.36256Z" fill-rule="nonzero"/><path fill="#000000" fill-opacity="0.0" clip-path="url(#id_0)" d="M739.1543 126.113174C739.1543 127.77003 737.8111 129.11317 736.1543 129.11317C734.49744 129.11317 733.1543 127.77003 733.1543 126.113174C733.1543 124.45632 734.49744 123.113174 736.1543 123.113174C737.8111 123.113174 739.1543 124.45632 739.1543 126.113174Z" fill-rule="nonzero"/><path fill="#000000" fill-opacity="0.0" clip-path="url(#id_0)" d="M751.1994 125.88564C751.1994 127.5425 749.85626 128.88565 748.1994 128.88565C746.54254 128.88565 745.1994 127.5425 745.1994 125.88564C745.1994 124.22879 746.54254 122.88564 748.1994 122.88564C749.85626 122.88564 751.1994 124.22879 751.1994 125.88564Z" fill-rule="nonzero"/><path fill="#000000" fill-opacity="0.0" clip-path="url(#id_0)" d="M763.2445 125.678055C763.2445 127.334915 761.90137 128.67805 760.2445 128.67805C758.58765 128.67805 757.2445 127.334915 757.2445 125.678055C757.2445 124.0212 758.58765 122.678055 760.2445 122.678055C761.90137 122.678055 763.2445 124.0212 763.2445 125.678055Z" fill-rule="nonzero"/><path fill="#000000" fill-opacity="0.0" clip-path="url(#id_0)" d="M775.2896 125.488655C775.2896 127.145515 773.9465 128.48866 772.2896 128.48866C770.63275 128.48866 769.2896 127.145515 769.2896 125.488655C769.2896 123.8318 770.63275 122.488655 772.2896 122.488655C773.9465 122.488655 775.2896 123.8318 775.2896 125.488655Z" fill-rule="nonzero"/><path fill="#000000" fill-opacity="0.0" clip-path="url(#id_0)" d="M787.3348 125.31586C787.3348 126.97271 785.99164 128.31586 784.3348 128.31586C782.6779 128.31586 781.3348 126.97271 781.3348 125.31586C781.3348 123.659004 782.6779 122.31586 784.3348 122.31586C785.99164 122.31586 787.3348 123.659004 787.3348 125.31586Z" fill-rule="nonzero"/><path fill="#000000" fill-opacity="0.0" clip-path="url(#id_0)" d="M799.3799 125.158195C799.3799 126.81505 798.03674 128.1582 796.3799 128.1582C794.723 128.1582 793.3799 126.81505 793.3799 125.158195C793.3799 123.50134 794.723 122.158195 796.3799 122.158195C798.03674 122.158195 799.3799 123.50134 799.3799 125.158195Z" fill-rule="nonzero"/><path fill="#000000" fill-opacity="0.0" clip-path="url(#id_0)" d="M811.425 125.01435C811.425 126.6712 810.08185 128.01436 808.425 128.01436C806.7681 128.01436 805.425 126.6712 805.425 125.01435C805.425 123.3575 806.7681 122.01435 808.425 122.01435C810.08185 122.01435 811.425 123.3575 811.425 125.01435Z" fill-rule="nonzero"/><path fill="#000000" fill-opacity="0.0" clip-path="url(#id_0)" d="M823.4701 124.88311C823.4701 126.53997 822.12695 127.88311 820.4701 127.88311C818.8133 127.88311 817.4701 126.53997 817.4701 124.88311C817.4701 123.22626 818.8133 121.88311 820.4701 121.88311C822.12695 121.88311 823.4701 123.22626 823.4701 124.88311Z" fill-rule="nonzero"/><path fill="#000000" fill-opacity="0.0" clip-path="url(#id_0)" d="M835.51526 124.763374C835.51526 126.42023 834.1721 127.763374 832.51526 127.763374C830.8584 127.763374 829.51526 126.42023 829.51526 124.763374C829.51526 123.10652 830.8584 121.763374 832.51526 121.763374C834.1721 121.763374 835.51526 123.10652 835.51526 124.763374Z" fill-rule="nonzero"/><path fill="#000000" fill-opacity="0.0" clip-path="url(#id_0)" d="M847.56036 124.65413C847.56036 126.31098 846.2172 127.65413 844.56036 127.65413C842.9035 127.65413 841.56036 126.31098 841.56036 124.65413C841.56036 122.99728 842.9035 121.65413 844.56036 121.65413C846.2172 121.65413 847.56036 122.99728 847.56036 124.65413Z" fill-rule="nonzero"/><path fill="#000000" fill-opacity="0.0" clip-path="url(#id_0)" d="M859.60547 124.55445C859.60547 126.2113 858.2623 127.55445 856.60547 127.55445C854.9486 127.55445 853.60547 126.2113 853.60547 124.55445C853.60547 122.8976 854.9486 121.55445 856.60547 121.55445C858.2623 121.55445 859.60547 122.8976 859.60547 124.55445Z" fill-rule="nonzero"/><path fill="#000000" fill-opacity="0.0" clip-path="url(#id_0)" d="M871.65063 124.46352C871.65063 126.12037 870.30743 127.46352 868.65063 127.46352C866.9938 127.46352 865.65063 126.12037 865.65063 124.46352C865.65063 122.806656 866.9938 121.46352 868.65063 121.46352C870.30743 121.46352 871.65063 122.806656 871.65063 124.46352Z" fill-rule="nonzero"/><path fill="#000000" fill-opacity="0.0" clip-path="url(#id_0)" d="M883.69574 124.38055C883.69574 126.0374 882.3526 127.38055 880.69574 127.38055C879.0389 127.38055 877.69574 126.0374 877.69574 124.38055C877.69574 122.72369 879.0389 121.38055 880.69574 121.38055C882.3526 121.38055 883.69574 122.72369 883.69574 124.38055Z" fill-rule="nonzero"/><path fill="#000000" fill-opacity="0.0" clip-path="url(#id_0)" d="M895.74084 124.30484C895.74084 125.9617 894.3977 127.30484 892.74084 127.30484C891.084 127.30484 889.74084 125.9617 889.74084 124.30484C889.74084 122.64799 891.084 121.30484 892.74084 121.30484C894.3977 121.30484 895.74084 122.64799 895.74084 124.30484Z" fill-rule="nonzero"/><path fill="#000000" fill-opacity="0.0" clip-path="url(#id_0)" d="M907.78595 124.23578C907.78595 125.89263 906.4428 127.23578 904.78595 127.23578C903.12915 127.23578 901.78595 125.89263 901.78595 124.23578C901.78595 122.578926 903.12915 121.23578 904.78595 121.23578C906.4428 121.23578 907.78595 122.578926 907.78595 124.23578Z" fill-rule="nonzero"/><path fill="#000000" fill-opacity="0.0" clip-path="url(#id_0)" d="M919.8311 124.17276C919.8311 125.82962 918.488 127.17276 916.8311 127.17276C915.17426 127.17276 913.8311 125.82962 913.8311 124.17276C913.8311 122.51591 915.17426 121.17276 916.8311 121.17276C918.488 121.17276 919.8311 122.51591 919.8311 124.17276Z" fill-rule="nonzero"/><path fill="#000000" fill-opacity="0.0" clip-path="url(#id_0)" d="M931.8762 124.11527C931.8762 125.772125 930.5331 127.11527 928.8762 127.11527C927.21936 127.11527 925.8762 125.772125 925.8762 124.11527C925.8762 122.45841 927.21936 121.11527 928.8762 121.11527C930.5331 121.11527 931.8762 122.45841 931.8762 124.11527Z" fill-rule="nonzero"/><path fill="#000000" fill-opacity="0.0" clip-path="url(#id_0)" d="M943.9213 124.06281C943.9213 125.71967 942.5782 127.06281 940.9213 127.06281C939.26447 127.06281 937.9213 125.71967 937.9213 124.06281C937.9213 122.40596 939.26447 121.06281 940.9213 121.06281C942.5782 121.06281 943.9213 122.40596 943.9213 124.06281Z" fill-rule="nonzero"/><path fill="#000000" fill-opacity="0.0" clip-path="url(#id_0)" d="M955.9665 124.01496C955.9665 125.671814 954.6233 127.01496 952.9665 127.01496C951.30963 127.01496 949.9665 125.671814 949.9665 124.01496C949.9665 122.3581 951.30963 121.01496 952.9665 121.01496C954.6233 121.01496 955.9665 122.3581 955.9665 124.01496Z" fill-rule="nonzero"/><path fill="#000000" fill-opacity="0.0" clip-path="url(#id_0)" d="M968.0116 123.97129C968.0116 125.62815 966.66846 126.97129 965.0116 126.97129C963.35474 126.97129 962.0116 125.62815 962.0116 123.97129C962.0116 122.31444 963.35474 120.97129 965.0116 120.97129C966.66846 120.97129 968.0116 122.31444 968.0116 123.97129Z" fill-rule="nonzero"/><path fill="#000000" fill-opacity="0.0" clip-path="url(#id_0)" d="M980.0567 123.93146C980.0567 125.58831 978.71356 126.93146 977.0567 126.93146C975.39984 126.93146 974.0567 125.58831 974.0567 123.93146C974.0567 122.2746 975.39984 120.93146 977.0567 120.93146C978.71356 120.93146 980.0567 122.2746 980.0567 123.93146Z" fill-rule="nonzero"/><path fill="#000000" fill-opacity="0.0" clip-path="url(#id_0)" d="M992.1018 123.89511C992.1018 125.55196 990.75867 126.89511 989.1018 126.89511C987.44495 126.89511 986.1018 125.55196 986.1018 123.89511C986.1018 122.23825 987.44495 120.89511 989.1018 120.89511C990.75867 120.89511 992.1018 122.23825 992.1018 123.89511Z" fill-rule="nonzero"/><path fill="#000000" fill-opacity="0.0" clip-path="url(#id_0)" d="M1004.147 123.861946C1004.147 125.5188 1002.80383 126.861946 1001.147 126.861946C999.4901 126.861946 998.147 125.5188 998.147 123.861946C998.147 122.20509 999.4901 120.861946 1001.147 120.861946C1002.80383 120.861946 1004.147 122.20509 1004.147 123.861946Z" fill-rule="nonzero"/><path fill="#000000" fill-opacity="0.0" clip-path="url(#id_0)" d="M1016.1921 123.83169C1016.1921 125.48854 1014.84894 126.83169 1013.1921 126.83169C1011.5352 126.83169 1010.1921 125.48854 1010.1921 123.83169C1010.1921 122.174835 1011.5352 120.83169 1013.1921 120.83169C1014.84894 120.83169 1016.1921 122.174835 1016.1921 123.83169Z" fill-rule="nonzero"/><path fill="#000000" fill-opacity="0.0" clip-path="url(#id_0)" d="M1028.2372 123.804085C1028.2372 125.46094 1026.894 126.804085 1025.2372 126.804085C1023.5803 126.804085 1022.2372 125.46094 1022.2372 123.804085C1022.2372 122.14723 1023.5803 120.804085 1025.2372 120.804085C1026.894 120.804085 1028.2372 122.14723 1028.2372 123.804085Z" fill-rule="nonzero"/><path fill="#000000" fill-opacity="0.0" clip-path="url(#id_0)" d="M1040.2823 123.7789C1040.2823 125.43575 1038.9392 126.7789 1037.2823 126.7789C1035.6255 126.7789 1034.2823 125.43575 1034.2823 123.7789C1034.2823 122.12205 1035.6255 120.7789 1037.2823 120.7789C1038.9392 120.7789 1040.2823 122.12205 1040.2823 123.7789Z" fill-rule="nonzero"/><path fill="#000000" fill-opacity="0.0" clip-path="url(#id_0)" d="M1052.3274 123.75592C1052.3274 125.41277 1050.9843 126.75592 1049.3274 126.75592C1047.6705 126.75592 1046.3274 125.41277 1046.3274 123.75592C1046.3274 122.09907 1047.6705 120.75592 1049.3274 120.75592C1050.9843 120.75592 1052.3274 122.09907 1052.3274 123.75592Z" fill-rule="nonzero"/><path fill="#000000" fill-opacity="0.0" clip-path="url(#id_0)" d="M76.67256 428.81668C76.67256 430.4735 75.329414 431.81668 73.67256 431.81668C72.01571 431.81668 70.67256 430.4735 70.67256 428.81668C70.67256 427.15982 72.01571 425.81668 73.67256 425.81668C75.329414 425.81668 76.67256 427.15982 76.67256 428.81668Z" fill-rule="nonzero"/><path fill="#000000" fill-opacity="0.0" clip-path="url(#id_0)" d="M88.71768 296.52C88.71768 298.17685 87.374535 299.52 85.71768 299.52C84.06083 299.52 82.71768 298.17685 82.71768 296.52C82.71768 294.86316 84.06083 293.52 85.71768 293.52C87.374535 293.52 88.71768 294.86316 88.71768 296.52Z" fill-rule="nonzero"/><path fill="#000000" fill-opacity="0.0" clip-path="url(#id_0)" d="M100.7628 279.21967C100.7628 280.87653 99.41966 282.21967 97.7628 282.21967C96.10595 282.21967 94.7628 280.87653 94.7628 279.21967C94.7628 277.5628 96.10595 276.21967 97.7628 276.21967C99.41966 276.21967 100.7628 277.5628 100.7628 279.21967Z" fill-rule="nonzero"/><path fill="#000000" fill-opacity="0.0" clip-path="url(#id_0)" d="M112.80793 268.7377C112.80793 270.39456 111.46478 271.7377 109.80793 271.7377C108.15107 271.7377 106.80793 270.39456 106.80793 268.7377C106.80793 267.08084 108.15107 265.7377 109.80793 265.7377C111.46478 265.7377 112.80793 267.08084 112.80793 268.7377Z" fill-rule="nonzero"/><path fill="#000000" fill-opacity="0.0" clip-path="url(#id_0)" d="M124.85305 228.26509C124.85305 229.92195 123.5099 231.26509 121.85305 231.26509C120.1962 231.26509 118.85305 229.92195 118.85305 228.26509C118.85305 226.60825 120.1962 225.26509 121.85305 225.26509C123.5099 225.26509 124.85305 226.60825 124.85305 228.26509Z" fill-rule="nonzero"/><path fill="#000000" fill-opacity="0.0" clip-path="url(#id_0)" d="M136.89818 191.89064C136.89818 193.54749 135.55502 194.89064 133.89818 194.89064C132.24132 194.89064 130.89818 193.54749 130.89818 191.89064C130.89818 190.23378 132.24132 188.89064 133.89818 188.89064C135.55502 188.89064 136.89818 190.23378 136.89818 191.89064Z" fill-rule="nonzero"/><path fill="#000000" fill-opacity="0.0" clip-path="url(#id_0)" d="M148.9433 176.24533C148.9433 177.90219 147.60014 179.24533 145.9433 179.24533C144.28644 179.24533 142.9433 177.90219 142.9433 176.24533C142.9433 174.58849 144.28644 173.24533 145.9433 173.24533C147.60014 173.24533 148.9433 174.58849 148.9433 176.24533Z" fill-rule="nonzero"/><path fill="#000000" fill-opacity="0.0" clip-path="url(#id_0)" d="M160.98842 168.21C160.98842 169.86687 159.64526 171.21 157.98842 171.21C156.33156 171.21 154.98842 169.86687 154.98842 168.21C154.98842 166.55316 156.33156 165.21 157.98842 165.21C159.64526 165.21 160.98842 166.55316 160.98842 168.21Z" fill-rule="nonzero"/><path fill="#000000" fill-opacity="0.0" clip-path="url(#id_0)" d="M173.03354 157.88853C173.03354 159.5454 171.69038 160.88853 170.03354 160.88853C168.37668 160.88853 167.03354 159.5454 167.03354 157.88853C167.03354 156.23167 168.37668 154.88853 170.03354 154.88853C171.69038 154.88853 173.03354 156.23167 173.03354 157.88853Z" fill-rule="nonzero"/><path fill="#000000" fill-opacity="0.0" clip-path="url(#id_0)" d="M185.07866 147.92328C185.07866 149.58012 183.73552 150.92328 182.07866 150.92328C180.4218 150.92328 179.07866 149.58012 179.07866 147.92328C179.07866 146.26642 180.4218 144.92328 182.07866 144.92328C183.73552 144.92328 185.07866 146.26642 185.07866 147.92328Z" fill-rule="nonzero"/><path fill="#000000" fill-opacity="0.0" clip-path="url(#id_0)" d="M197.12378 141.70468C197.12378 143.36154 195.78064 144.70468 194.12378 144.70468C192.46692 144.70468 191.12378 143.36154 191.12378 141.70468C191.12378 140.04784 192.46692 138.70468 194.12378 138.70468C195.78064 138.70468 197.12378 140.04784 197.12378 141.70468Z" fill-rule="nonzero"/><path fill="#000000" fill-opacity="0.0" clip-path="url(#id_0)" d="M209.1689 137.99414C209.1689 139.65099 207.82576 140.99414 206.1689 140.99414C204.51205 140.99414 203.1689 139.65099 203.1689 137.99414C203.1689 136.33728 204.51205 134.99414 206.1689 134.99414C207.82576 134.99414 209.1689 136.33728 209.1689 137.99414Z" fill-rule="nonzero"/><path fill="#000000" fill-opacity="0.0" clip-path="url(#id_0)" d="M221.21402 134.77437C221.21402 136.43121 219.87088 137.77437 218.21402 137.77437C216.55717 137.77437 215.21402 136.43121 215.21402 134.77437C215.21402 133.11751 216.55717 131.77437 218.21402 131.77437C219.87088 131.77437 221.21402 133.11751 221.21402 134.77437Z" fill-rule="nonzero"/><path fill="#000000" fill-opacity="0.0" clip-path="url(#id_0)" d="M233.25914 131.86627C233.25914 133.52312 231.916 134.86627 230.25914 134.86627C228.6023 134.86627 227.25914 133.52312 227.25914 131.86627C227.25914 130.20941 228.6023 128.86627 230.25914 128.86627C231.916 128.86627 233.25914 130.20941 233.25914 131.86627Z" fill-rule="nonzero"/><path fill="#000000" fill-opacity="0.0" clip-path="url(#id_0)" d="M245.30428 129.7457C245.30428 131.40256 243.96112 132.7457 242.30428 132.7457C240.64742 132.7457 239.30428 131.40256 239.30428 129.7457C239.30428 128.08884 240.64742 126.7457 242.30428 126.7457C243.96112 126.7457 245.30428 128.08884 245.30428 129.7457Z" fill-rule="nonzero"/><path fill="#000000" fill-opacity="0.0" clip-path="url(#id_0)" d="M257.3494 128.3253C257.3494 129.98216 256.00626 131.3253 254.3494 131.3253C252.69254 131.3253 251.3494 129.98216 251.3494 128.3253C251.3494 126.66845 252.69254 125.3253 254.3494 125.3253C256.00626 125.3253 257.3494 126.66845 257.3494 128.3253Z" fill-rule="nonzero"/><path fill="#000000" fill-opacity="0.0" clip-path="url(#id_0)" d="M269.3945 127.2348C269.3945 128.89166 268.05136 130.2348 266.3945 130.2348C264.73767 130.2348 263.3945 128.89166 263.3945 127.2348C263.3945 125.57795 264.73767 124.2348 266.3945 124.2348C268.05136 124.2348 269.3945 125.57795 269.3945 127.2348Z" fill-rule="nonzero"/><path fill="#000000" fill-opacity="0.0" clip-path="url(#id_0)" d="M281.43964 126.327385C281.43964 127.98424 280.0965 129.32738 278.43964 129.32738C276.78278 129.32738 275.43964 127.98424 275.43964 126.327385C275.43964 124.670525 276.78278 123.327385 278.43964 123.327385C280.0965 123.327385 281.43964 124.670525 281.43964 126.327385Z" fill-rule="nonzero"/><path fill="#000000" fill-opacity="0.0" clip-path="url(#id_0)" d="M293.48474 125.62983C293.48474 127.28669 292.1416 128.62984 290.48474 128.62984C288.8279 128.62984 287.48474 127.28669 287.48474 125.62983C287.48474 123.97298 288.8279 122.62983 290.48474 122.62983C292.1416 122.62983 293.48474 123.97298 293.48474 125.62983Z" fill-rule="nonzero"/><path fill="#000000" fill-opacity="0.0" clip-path="url(#id_0)" d="M305.52988 125.1286C305.52988 126.78545 304.18674 128.1286 302.52988 128.1286C300.87302 128.1286 299.52988 126.78545 299.52988 125.1286C299.52988 123.47175 300.87302 122.1286 302.52988 122.1286C304.18674 122.1286 305.52988 123.47175 305.52988 125.1286Z" fill-rule="nonzero"/><path fill="#000000" fill-opacity="0.0" clip-path="url(#id_0)" d="M317.575 124.754036C317.575 126.41089 316.23184 127.754036 314.575 127.754036C312.91815 127.754036 311.575 126.41089 311.575 124.754036C311.575 123.09718 312.91815 121.754036 314.575 121.754036C316.23184 121.754036 317.575 123.09718 317.575 124.754036Z" fill-rule="nonzero"/><path fill="#000000" fill-opacity="0.0" clip-path="url(#id_0)" d="M329.62012 124.45828C329.62012 126.115135 328.27698 127.45828 326.62012 127.45828C324.96326 127.45828 323.62012 126.115135 323.62012 124.45828C323.62012 122.80143 324.96326 121.45828 326.62012 121.45828C328.27698 121.45828 329.62012 122.80143 329.62012 124.45828Z" fill-rule="nonzero"/><path fill="#000000" fill-opacity="0.0" clip-path="url(#id_0)" d="M341.66525 124.22902C341.66525 125.88587 340.3221 127.22902 338.66525 127.22902C337.0084 127.22902 335.66525 125.88587 335.66525 124.22902C335.66525 122.57216 337.0084 121.22902 338.66525 121.22902C340.3221 121.22902 341.66525 122.57216 341.66525 124.22902Z" fill-rule="nonzero"/><path fill="#000000" fill-opacity="0.0" clip-path="url(#id_0)" d="M353.71036 124.05818C353.71036 125.71504 352.36722 127.05818 350.71036 127.05818C349.0535 127.05818 347.71036 125.71504 347.71036 124.05818C347.71036 122.40133 349.0535 121.05818 350.71036 121.05818C352.36722 121.05818 353.71036 122.40133 353.71036 124.05818Z" fill-rule="nonzero"/><path fill="#000000" fill-opacity="0.0" clip-path="url(#id_0)" d="M365.7555 123.93034C365.7555 125.5872 364.41235 126.93034 362.7555 126.93034C361.09863 126.93034 359.7555 125.5872 359.7555 123.93034C359.7555 122.27349 361.09863 120.93034 362.7555 120.93034C364.41235 120.93034 365.7555 122.27349 365.7555 123.93034Z" fill-rule="nonzero"/><path fill="#000000" fill-opacity="0.0" clip-path="url(#id_0)" d="M377.8006 123.831924C377.8006 125.48878 376.45746 126.831924 374.8006 126.831924C373.14377 126.831924 371.8006 125.48878 371.8006 123.831924C371.8006 122.175064 373.14377 120.831924 374.8006 120.831924C376.45746 120.831924 377.8006 122.175064 377.8006 123.831924Z" fill-rule="nonzero"/><path fill="#000000" fill-opacity="0.0" clip-path="url(#id_0)" d="M389.84573 123.75601C389.84573 125.412865 388.5026 126.75601 386.84573 126.75601C385.18887 126.75601 383.84573 125.412865 383.84573 123.75601C383.84573 122.09916 385.18887 120.75601 386.84573 120.75601C388.5026 120.75601 389.84573 122.09916 389.84573 123.75601Z" fill-rule="nonzero"/><path fill="#000000" d="M55.15 632.1156Q55.15 630.58435 55.4625 629.6625Q55.775 628.725 56.384377 628.225Q57.009377 627.725 57.946877 627.725Q58.634377 627.725 59.15 628.0062Q59.68125 628.2875 60.025 628.8187Q60.36875 629.33435 60.55625 630.08435Q60.74375 630.83435 60.74375 632.1156Q60.74375 633.6312 60.43125 634.5531Q60.134377 635.475 59.509377 635.9906Q58.9 636.4906 57.946877 636.4906Q56.7125 636.4906 55.99375 635.6Q55.15 634.5375 55.15 632.1156ZM56.228127 632.1156Q56.228127 634.225 56.728127 634.9281Q57.228127 635.6312 57.946877 635.6312Q58.68125 635.6312 59.165627 634.9281Q59.665627 634.225 59.665627 632.1156Q59.665627 629.9906 59.165627 629.3031Q58.68125 628.6 57.93125 628.6Q57.2125 628.6 56.775 629.20935Q56.228127 629.9906 56.228127 632.1156Z" fill-rule="nonzero"/><path fill="#000000" d="M41.15 506.89166L42.259377 506.7979Q42.384377 507.6104 42.821877 508.01666Q43.275 508.4229 43.915627 508.4229Q44.665627 508.4229 45.196877 507.8448Q45.728127 507.26666 45.728127 506.32916Q45.728127 505.4229 45.2125 504.9073Q44.7125 504.37604 43.884377 504.37604Q43.384377 504.37604 42.9625 504.6104Q42.55625 504.8448 42.321877 505.20416L41.3375 505.07916L42.165627 500.6729L46.446877 500.6729L46.446877 501.6729L43.009377 501.6729L42.55625 503.9854Q43.321877 503.43854 44.165627 503.43854Q45.290627 503.43854 46.05625 504.2198Q46.8375 505.00104 46.8375 506.2354Q46.8375 507.39166 46.165627 508.25104Q45.3375 509.2823 43.915627 509.2823Q42.74375 509.2823 41.99375 508.62604Q41.259377 507.9698 41.15 506.89166ZM48.15 504.9073Q48.15 503.37604 48.4625 502.45416Q48.775 501.51666 49.384377 501.01666Q50.009377 500.51666 50.946877 500.51666Q51.634377 500.51666 52.15 500.7979Q52.68125 501.07916 53.025 501.6104Q53.36875 502.12604 53.55625 502.87604Q53.74375 503.62604 53.74375 504.9073Q53.74375 506.4229 53.43125 507.3448Q53.134377 508.26666 52.509377 508.7823Q51.9 509.2823 50.946877 509.2823Q49.7125 509.2823 48.99375 508.39166Q48.15 507.32916 48.15 504.9073ZM49.228127 504.9073Q49.228127 507.01666 49.728127 507.7198Q50.228127 508.4229 50.946877 508.4229Q51.68125 508.4229 52.165627 507.7198Q52.665627 507.01666 52.665627 504.9073Q52.665627 502.7823 52.165627 502.0948Q51.68125 501.39166 50.93125 501.39166Q50.2125 501.39166 49.775 502.00104Q49.228127 502.7823 49.228127 504.9073ZM55.15 504.9073Q55.15 503.37604 55.4625 502.45416Q55.775 501.51666 56.384377 501.01666Q57.009377 500.51666 57.946877 500.51666Q58.634377 500.51666 59.15 500.7979Q59.68125 501.07916 60.025 501.6104Q60.36875 502.12604 60.55625 502.87604Q60.74375 503.62604 60.74375 504.9073Q60.74375 506.4229 60.43125 507.3448Q60.134377 508.26666 59.509377 508.7823Q58.9 509.2823 57.946877 509.2823Q56.7125 509.2823 55.99375 508.39166Q55.15 507.32916 55.15 504.9073ZM56.228127 504.9073Q56.228127 507.01666 56.728127 507.7198Q57.228127 508.4229 57.946877 508.4229Q58.68125 508.4229 59.165627 507.7198Q59.665627 507.01666 59.665627 504.9073Q59.665627 502.7823 59.165627 502.0948Q58.68125 501.39166 57.93125 501.39166Q57.2125 501.39166 56.775 502.00104Q56.228127 502.7823 56.228127 504.9073Z" fill-rule="nonzero"/><path fill="#000000" d="M38.11875 381.93332L37.071877 381.93332L37.071877 375.21457Q36.68125 375.57394 36.05625 375.94894Q35.446877 376.30832 34.9625 376.4802L34.9625 375.46457Q35.8375 375.0427 36.49375 374.46457Q37.165627 373.87082 37.446877 373.30832L38.11875 373.30832L38.11875 381.93332ZM41.15 377.69894Q41.15 376.1677 41.4625 375.24582Q41.775 374.30832 42.384377 373.80832Q43.009377 373.30832 43.946877 373.30832Q44.634377 373.30832 45.15 373.58957Q45.68125 373.87082 46.025 374.40207Q46.36875 374.9177 46.55625 375.6677Q46.74375 376.4177 46.74375 377.69894Q46.74375 379.21457 46.43125 380.13644Q46.134377 381.05832 45.509377 381.57394Q44.9 382.07394 43.946877 382.07394Q42.7125 382.07394 41.99375 381.18332Q41.15 380.12082 41.15 377.69894ZM42.228127 377.69894Q42.228127 379.80832 42.728127 380.51144Q43.228127 381.21457 43.946877 381.21457Q44.68125 381.21457 45.165627 380.51144Q45.665627 379.80832 45.665627 377.69894Q45.665627 375.57394 45.165627 374.88644Q44.68125 374.18332 43.93125 374.18332Q43.2125 374.18332 42.775 374.7927Q42.228127 375.57394 42.228127 377.69894ZM48.15 377.69894Q48.15 376.1677 48.4625 375.24582Q48.775 374.30832 49.384377 373.80832Q50.009377 373.30832 50.946877 373.30832Q51.634377 373.30832 52.15 373.58957Q52.68125 373.87082 53.025 374.40207Q53.36875 374.9177 53.55625 375.6677Q53.74375 376.4177 53.74375 377.69894Q53.74375 379.21457 53.43125 380.13644Q53.134377 381.05832 52.509377 381.57394Q51.9 382.07394 50.946877 382.07394Q49.7125 382.07394 48.99375 381.18332Q48.15 380.12082 48.15 377.69894ZM49.228127 377.69894Q49.228127 379.80832 49.728127 380.51144Q50.228127 381.21457 50.946877 381.21457Q51.68125 381.21457 52.165627 380.51144Q52.665627 379.80832 52.665627 377.69894Q52.665627 375.57394 52.165627 374.88644Q51.68125 374.18332 50.93125 374.18332Q50.2125 374.18332 49.775 374.7927Q49.228127 375.57394 49.228127 377.69894ZM55.15 377.69894Q55.15 376.1677 55.4625 375.24582Q55.775 374.30832 56.384377 373.80832Q57.009377 373.30832 57.946877 373.30832Q58.634377 373.30832 59.15 373.58957Q59.68125 373.87082 60.025 374.40207Q60.36875 374.9177 60.55625 375.6677Q60.74375 376.4177 60.74375 377.69894Q60.74375 379.21457 60.43125 380.13644Q60.134377 381.05832 59.509377 381.57394Q58.9 382.07394 57.946877 382.07394Q56.7125 382.07394 55.99375 381.18332Q55.15 380.12082 55.15 377.69894ZM56.228127 377.69894Q56.228127 379.80832 56.728127 380.51144Q57.228127 381.21457 57.946877 381.21457Q58.68125 381.21457 59.165627 380.51144Q59.665627 379.80832 59.665627 377.69894Q59.665627 375.57394 59.165627 374.88644Q58.68125 374.18332 57.93125 374.18332Q57.2125 374.18332 56.775 374.7927Q56.228127 375.57394 56.228127 377.69894Z" fill-rule="nonzero"/><path fill="#000000" d="M38.11875 254.725L37.071877 254.725L37.071877 248.00626Q36.68125 248.36563 36.05625 248.74063Q35.446877 249.1 34.9625 249.27188L34.9625 248.25626Q35.8375 247.83438 36.49375 247.25626Q37.165627 246.6625 37.446877 246.1L38.11875 246.1L38.11875 254.725ZM41.15 252.475L42.259377 252.38126Q42.384377 253.19376 42.821877 253.6Q43.275 254.00626 43.915627 254.00626Q44.665627 254.00626 45.196877 253.42813Q45.728127 252.85 45.728127 251.9125Q45.728127 251.00626 45.2125 250.49063Q44.7125 249.95938 43.884377 249.95938Q43.384377 249.95938 42.9625 250.19376Q42.55625 250.42813 42.321877 250.7875L41.3375 250.6625L42.165627 246.25626L46.446877 246.25626L46.446877 247.25626L43.009377 247.25626L42.55625 249.56876Q43.321877 249.02188 44.165627 249.02188Q45.290627 249.02188 46.05625 249.80313Q46.8375 250.58438 46.8375 251.81876Q46.8375 252.975 46.165627 253.83438Q45.3375 254.86563 43.915627 254.86563Q42.74375 254.86563 41.99375 254.20938Q41.259377 253.55313 41.15 252.475ZM48.15 250.49063Q48.15 248.95938 48.4625 248.0375Q48.775 247.1 49.384377 246.6Q50.009377 246.1 50.946877 246.1Q51.634377 246.1 52.15 246.38126Q52.68125 246.6625 53.025 247.19376Q53.36875 247.70938 53.55625 248.45938Q53.74375 249.20938 53.74375 250.49063Q53.74375 252.00626 53.43125 252.92813Q53.134377 253.85 52.509377 254.36563Q51.9 254.86563 50.946877 254.86563Q49.7125 254.86563 48.99375 253.975Q48.15 252.9125 48.15 250.49063ZM49.228127 250.49063Q49.228127 252.6 49.728127 253.30313Q50.228127 254.00626 50.946877 254.00626Q51.68125 254.00626 52.165627 253.30313Q52.665627 252.6 52.665627 250.49063Q52.665627 248.36563 52.165627 247.67813Q51.68125 246.975 50.93125 246.975Q50.2125 246.975 49.775 247.58438Q49.228127 248.36563 49.228127 250.49063ZM55.15 250.49063Q55.15 248.95938 55.4625 248.0375Q55.775 247.1 56.384377 246.6Q57.009377 246.1 57.946877 246.1Q58.634377 246.1 59.15 246.38126Q59.68125 246.6625 60.025 247.19376Q60.36875 247.70938 60.55625 248.45938Q60.74375 249.20938 60.74375 250.49063Q60.74375 252.00626 60.43125 252.92813Q60.134377 253.85 59.509377 254.36563Q58.9 254.86563 57.946877 254.86563Q56.7125 254.86563 55.99375 253.975Q55.15 252.9125 55.15 250.49063ZM56.228127 250.49063Q56.228127 252.6 56.728127 253.30313Q57.228127 254.00626 57.946877 254.00626Q58.68125 254.00626 59.165627 253.30313Q59.665627 252.6 59.665627 250.49063Q59.665627 248.36563 59.165627 247.67813Q58.68125 246.975 57.93125 246.975Q57.2125 246.975 56.775 247.58438Q56.228127 248.36563 56.228127 250.49063Z" fill-rule="nonzero"/><path fill="#000000" d="M39.696877 126.501045L39.696877 127.51667L34.009377 127.51667Q34.009377 127.14167 34.134377 126.782295Q34.353127 126.20417 34.821877 125.64167Q35.30625 125.07917 36.2125 124.344795Q37.61875 123.188545 38.103127 122.51667Q38.603127 121.844795 38.603127 121.251045Q38.603127 120.626045 38.15 120.20417Q37.696877 119.76667 36.978127 119.76667Q36.2125 119.76667 35.759377 120.219795Q35.30625 120.67292 35.290627 121.48542L34.2125 121.376045Q34.321877 120.157295 35.040627 119.532295Q35.775 118.89167 37.009377 118.89167Q38.24375 118.89167 38.9625 119.57917Q39.68125 120.26667 39.68125 121.282295Q39.68125 121.79792 39.4625 122.29792Q39.259377 122.782295 38.759377 123.344795Q38.275 123.89167 37.15 124.844795Q36.196877 125.64167 35.915627 125.938545Q35.65 126.219795 35.478127 126.501045L39.696877 126.501045ZM41.15 123.282295Q41.15 121.751045 41.4625 120.82917Q41.775 119.89167 42.384377 119.39167Q43.009377 118.89167 43.946877 118.89167Q44.634377 118.89167 45.15 119.17292Q45.68125 119.45417 46.025 119.98542Q46.36875 120.501045 46.55625 121.251045Q46.74375 122.001045 46.74375 123.282295Q46.74375 124.79792 46.43125 125.719795Q46.134377 126.64167 45.509377 127.157295Q44.9 127.657295 43.946877 127.657295Q42.7125 127.657295 41.99375 126.76667Q41.15 125.70417 41.15 123.282295ZM42.228127 123.282295Q42.228127 125.39167 42.728127 126.094795Q43.228127 126.79792 43.946877 126.79792Q44.68125 126.79792 45.165627 126.094795Q45.665627 125.39167 45.665627 123.282295Q45.665627 121.157295 45.165627 120.469795Q44.68125 119.76667 43.93125 119.76667Q43.2125 119.76667 42.775 120.376045Q42.228127 121.157295 42.228127 123.282295ZM48.15 123.282295Q48.15 121.751045 48.4625 120.82917Q48.775 119.89167 49.384377 119.39167Q50.009377 118.89167 50.946877 118.89167Q51.634377 118.89167 52.15 119.17292Q52.68125 119.45417 53.025 119.98542Q53.36875 120.501045 53.55625 121.251045Q53.74375 122.001045 53.74375 123.282295Q53.74375 124.79792 53.43125 125.719795Q53.134377 126.64167 52.509377 127.157295Q51.9 127.657295 50.946877 127.657295Q49.7125 127.657295 48.99375 126.76667Q48.15 125.70417 48.15 123.282295ZM49.228127 123.282295Q49.228127 125.39167 49.728127 126.094795Q50.228127 126.79792 50.946877 126.79792Q51.68125 126.79792 52.165627 126.094795Q52.665627 125.39167 52.665627 123.282295Q52.665627 121.157295 52.165627 120.469795Q51.68125 119.76667 50.93125 119.76667Q50.2125 119.76667 49.775 120.376045Q49.228127 121.157295 49.228127 123.282295ZM55.15 123.282295Q55.15 121.751045 55.4625 120.82917Q55.775 119.89167 56.384377 119.39167Q57.009377 118.89167 57.946877 118.89167Q58.634377 118.89167 59.15 119.17292Q59.68125 119.45417 60.025 119.98542Q60.36875 120.501045 60.55625 121.251045Q60.74375 122.001045 60.74375 123.282295Q60.74375 124.79792 60.43125 125.719795Q60.134377 126.64167 59.509377 127.157295Q58.9 127.657295 57.946877 127.657295Q56.7125 127.657295 55.99375 126.76667Q55.15 125.70417 55.15 123.282295ZM56.228127 123.282295Q56.228127 125.39167 56.728127 126.094795Q57.228127 126.79792 57.946877 126.79792Q58.68125 126.79792 59.165627 126.094795Q59.665627 125.39167 59.665627 123.282295Q59.665627 121.157295 59.165627 120.469795Q58.68125 119.76667 57.93125 119.76667Q57.2125 119.76667 56.775 120.376045Q56.228127 121.157295 56.228127 123.282295Z" fill-rule="nonzero"/><path stroke="#4285f4" stroke-width="4.0" stroke-linecap="butt" d="M427.5 87.083336L439.5 87.083336" fill-rule="nonzero"/><path fill="#1a1a1a" d="M448.29688 93.47396L448.29688 84.864586L449.25 84.864586L449.25 85.66146Q449.59375 85.19271 450.01562 84.958336Q450.45312 84.72396 451.0625 84.72396Q451.85938 84.72396 452.46875 85.13021Q453.07812 85.53646 453.375 86.28646Q453.6875 87.03646 453.6875 87.927086Q453.6875 88.88021 453.34375 89.645836Q453.01562 90.41146 452.35938 90.81771Q451.70312 91.22396 450.98438 91.22396Q450.45312 91.22396 450.03125 91.00521Q449.60938 90.770836 449.34375 90.44271L449.34375 93.47396L448.29688 93.47396ZM449.25 88.00521Q449.25 89.208336 449.73438 89.78646Q450.21875 90.34896 450.90625 90.34896Q451.60938 90.34896 452.10938 89.75521Q452.60938 89.16146 452.60938 87.91146Q452.60938 86.72396 452.125 86.145836Q451.64062 85.552086 450.95312 85.552086Q450.28125 85.552086 449.76562 86.177086Q449.25 86.802086 449.25 88.00521ZM455.57812 86.06771L455.57812 84.864586L456.78125 84.864586L456.78125 86.06771L455.57812 86.06771ZM455.57812 91.083336L455.57812 89.88021L456.78125 89.88021L456.78125 91.083336L455.57812 91.083336ZM458.0 86.84896Q458.0 85.31771 458.3125 84.395836Q458.625 83.458336 459.23438 82.958336Q459.85938 82.458336 460.79688 82.458336Q461.48438 82.458336 462.0 82.739586Q462.53125 83.020836 462.875 83.552086Q463.21875 84.06771 463.40625 84.81771Q463.59375 85.56771 463.59375 86.84896Q463.59375 88.364586 463.28125 89.28646Q462.98438 90.208336 462.35938 90.72396Q461.75 91.22396 460.79688 91.22396Q459.5625 91.22396 458.84375 90.333336Q458.0 89.270836 458.0 86.84896ZM459.07812 86.84896Q459.07812 88.958336 459.57812 89.66146Q460.07812 90.364586 460.79688 90.364586Q461.53125 90.364586 462.01562 89.66146Q462.51562 88.958336 462.51562 86.84896Q462.51562 84.72396 462.01562 84.03646Q461.53125 83.333336 460.78125 83.333336Q460.0625 83.333336 459.625 83.94271Q459.07812 84.72396 459.07812 86.84896ZM465.59375 91.083336L465.59375 89.88021L466.79688 89.88021L466.79688 91.083336L465.59375 91.083336ZM471.96875 91.083336L470.92188 91.083336L470.92188 84.364586Q470.53125 84.72396 469.90625 85.09896Q469.29688 85.458336 468.8125 85.63021L468.8125 84.614586Q469.6875 84.19271 470.34375 83.614586Q471.01562 83.020836 471.29688 82.458336L471.96875 82.458336L471.96875 91.083336ZM475.5625 91.083336L475.5625 89.88021L476.76562 89.88021L476.76562 91.083336Q476.76562 91.739586 476.53125 92.145836Q476.29688 92.56771 475.79688 92.78646L475.5 92.333336Q475.82812 92.19271 475.98438 91.895836Q476.14062 91.614586 476.17188 91.083336L475.5625 91.083336ZM481.29688 83.708336L481.29688 82.489586L482.35938 82.489586L482.35938 83.708336L481.29688 83.708336ZM481.29688 91.083336L481.29688 84.864586L482.35938 84.864586L482.35938 91.083336L481.29688 91.083336ZM484.57812 86.06771L484.57812 84.864586L485.78125 84.864586L485.78125 86.06771L484.57812 86.06771ZM484.57812 91.083336L484.57812 89.88021L485.78125 89.88021L485.78125 91.083336L484.57812 91.083336ZM487.0 86.84896Q487.0 85.31771 487.3125 84.395836Q487.625 83.458336 488.23438 82.958336Q488.85938 82.458336 489.79688 82.458336Q490.48438 82.458336 491.0 82.739586Q491.53125 83.020836 491.875 83.552086Q492.21875 84.06771 492.40625 84.81771Q492.59375 85.56771 492.59375 86.84896Q492.59375 88.364586 492.28125 89.28646Q491.98438 90.208336 491.35938 90.72396Q490.75 91.22396 489.79688 91.22396Q488.5625 91.22396 487.84375 90.333336Q487.0 89.270836 487.0 86.84896ZM488.07812 86.84896Q488.07812 88.958336 488.57812 89.66146Q489.07812 90.364586 489.79688 90.364586Q490.53125 90.364586 491.01562 89.66146Q491.51562 88.958336 491.51562 86.84896Q491.51562 84.72396 491.01562 84.03646Q490.53125 83.333336 489.78125 83.333336Q489.0625 83.333336 488.625 83.94271Q488.07812 84.72396 488.07812 86.84896ZM494.59375 91.083336L494.59375 89.88021L495.79688 89.88021L495.79688 91.083336L494.59375 91.083336ZM500.96875 91.083336L499.92188 91.083336L499.92188 84.364586Q499.53125 84.72396 498.90625 85.09896Q498.29688 85.458336 497.8125 85.63021L497.8125 84.614586Q498.6875 84.19271 499.34375 83.614586Q500.01562 83.020836 500.29688 82.458336L500.96875 82.458336L500.96875 91.083336ZM504.5625 91.083336L504.5625 89.88021L505.76562 89.88021L505.76562 91.083336Q505.76562 91.739586 505.53125 92.145836Q505.29688 92.56771 504.79688 92.78646L504.5 92.333336Q504.82812 92.19271 504.98438 91.895836Q505.14062 91.614586 505.17188 91.083336L504.5625 91.083336ZM514.3281 91.083336L514.3281 90.302086Q513.7344 91.22396 512.59375 91.22396Q511.84375 91.22396 511.21875 90.81771Q510.59375 90.395836 510.25 89.66146Q509.90625 88.927086 509.90625 87.97396Q509.90625 87.052086 510.21875 86.28646Q510.53125 85.520836 511.15625 85.13021Q511.78125 84.72396 512.5469 84.72396Q513.1094 84.72396 513.5469 84.958336Q513.9844 85.19271 514.2656 85.56771L514.2656 82.489586L515.3125 82.489586L515.3125 91.083336L514.3281 91.083336ZM511.0 87.97396Q511.0 89.177086 511.5 89.770836Q512.0 90.34896 512.6875 90.34896Q513.375 90.34896 513.8594 89.78646Q514.34375 89.22396 514.34375 88.06771Q514.34375 86.78646 513.84375 86.19271Q513.3594 85.59896 512.6406 85.59896Q511.9375 85.59896 511.46875 86.177086Q511.0 86.739586 511.0 87.97396ZM517.5781 86.06771L517.5781 84.864586L518.78125 84.864586L518.78125 86.06771L517.5781 86.06771ZM517.5781 91.083336L517.5781 89.88021L518.78125 89.88021L518.78125 91.083336L517.5781 91.083336ZM520.0 86.84896Q520.0 85.31771 520.3125 84.395836Q520.625 83.458336 521.2344 82.958336Q521.8594 82.458336 522.7969 82.458336Q523.4844 82.458336 524.0 82.739586Q524.53125 83.020836 524.875 83.552086Q525.21875 84.06771 525.40625 84.81771Q525.59375 85.56771 525.59375 86.84896Q525.59375 88.364586 525.28125 89.28646Q524.9844 90.208336 524.3594 90.72396Q523.75 91.22396 522.7969 91.22396Q521.5625 91.22396 520.84375 90.333336Q520.0 89.270836 520.0 86.84896ZM521.0781 86.84896Q521.0781 88.958336 521.5781 89.66146Q522.0781 90.364586 522.7969 90.364586Q523.53125 90.364586 524.0156 89.66146Q524.5156 88.958336 524.5156 86.84896Q524.5156 84.72396 524.0156 84.03646Q523.53125 83.333336 522.78125 83.333336Q522.0625 83.333336 521.625 83.94271Q521.0781 84.72396 521.0781 86.84896ZM527.59375 91.083336L527.59375 89.88021L528.7969 89.88021L528.7969 91.083336L527.59375 91.083336ZM530.0 88.81771L531.0625 88.677086Q531.2344 89.56771 531.6719 89.97396Q532.1094 90.364586 532.7344 90.364586Q533.4844 90.364586 534.0 89.84896Q534.5156 89.333336 534.5156 88.56771Q534.5156 87.84896 534.03125 87.38021Q533.5625 86.895836 532.8281 86.895836Q532.53125 86.895836 532.0781 87.020836L532.2031 86.083336Q532.3125 86.09896 532.375 86.09896Q533.0469 86.09896 533.5781 85.75521Q534.125 85.395836 534.125 84.66146Q534.125 84.083336 533.7344 83.708336Q533.34375 83.31771 532.71875 83.31771Q532.1094 83.31771 531.6875 83.708336Q531.28125 84.09896 531.1719 84.864586L530.1094 84.677086Q530.2969 83.63021 530.9844 83.052086Q531.6719 82.458336 532.6875 82.458336Q533.3906 82.458336 533.9844 82.770836Q534.5781 83.06771 534.8906 83.583336Q535.2031 84.09896 535.2031 84.69271Q535.2031 85.239586 534.90625 85.708336Q534.6094 86.16146 534.03125 86.427086Q534.78125 86.59896 535.2031 87.16146Q535.625 87.708336 535.625 88.552086Q535.625 89.677086 534.7969 90.458336Q533.9844 91.239586 532.7344 91.239586Q531.6094 91.239586 530.8594 90.56771Q530.1094 89.88021 530.0 88.81771Z" fill-rule="nonzero"/><path stroke="#ea4335" stroke-width="4.0" stroke-linecap="butt" d="M552.5 87.083336L564.5 87.083336" fill-rule="nonzero"/><path fill="#1a1a1a" d="M573.2969 93.47396L573.2969 84.864586L574.25 84.864586L574.25 85.66146Q574.59375 85.19271 575.0156 84.958336Q575.4531 84.72396 576.0625 84.72396Q576.8594 84.72396 577.46875 85.13021Q578.0781 85.53646 578.375 86.28646Q578.6875 87.03646 578.6875 87.927086Q578.6875 88.88021 578.34375 89.645836Q578.0156 90.41146 577.3594 90.81771Q576.7031 91.22396 575.9844 91.22396Q575.4531 91.22396 575.03125 91.00521Q574.6094 90.770836 574.34375 90.44271L574.34375 93.47396L573.2969 93.47396ZM574.25 88.00521Q574.25 89.208336 574.7344 89.78646Q575.21875 90.34896 575.90625 90.34896Q576.6094 90.34896 577.1094 89.75521Q577.6094 89.16146 577.6094 87.91146Q577.6094 86.72396 577.125 86.145836Q576.6406 85.552086 575.9531 85.552086Q575.28125 85.552086 574.7656 86.177086Q574.25 86.802086 574.25 88.00521ZM580.5781 86.06771L580.5781 84.864586L581.78125 84.864586L581.78125 86.06771L580.5781 86.06771ZM580.5781 91.083336L580.5781 89.88021L581.78125 89.88021L581.78125 91.083336L580.5781 91.083336ZM583.0 86.84896Q583.0 85.31771 583.3125 84.395836Q583.625 83.458336 584.2344 82.958336Q584.8594 82.458336 585.7969 82.458336Q586.4844 82.458336 587.0 82.739586Q587.53125 83.020836 587.875 83.552086Q588.21875 84.06771 588.40625 84.81771Q588.59375 85.56771 588.59375 86.84896Q588.59375 88.364586 588.28125 89.28646Q587.9844 90.208336 587.3594 90.72396Q586.75 91.22396 585.7969 91.22396Q584.5625 91.22396 583.84375 90.333336Q583.0 89.270836 583.0 86.84896ZM584.0781 86.84896Q584.0781 88.958336 584.5781 89.66146Q585.0781 90.364586 585.7969 90.364586Q586.53125 90.364586 587.0156 89.66146Q587.5156 88.958336 587.5156 86.84896Q587.5156 84.72396 587.0156 84.03646Q586.53125 83.333336 585.78125 83.333336Q585.0625 83.333336 584.625 83.94271Q584.0781 84.72396 584.0781 86.84896ZM590.59375 91.083336L590.59375 89.88021L591.7969 89.88021L591.7969 91.083336L590.59375 91.083336ZM596.96875 91.083336L595.9219 91.083336L595.9219 84.364586Q595.53125 84.72396 594.90625 85.09896Q594.2969 85.458336 593.8125 85.63021L593.8125 84.614586Q594.6875 84.19271 595.34375 83.614586Q596.0156 83.020836 596.2969 82.458336L596.96875 82.458336L596.96875 91.083336ZM600.5625 91.083336L600.5625 89.88021L601.7656 89.88021L601.7656 91.083336Q601.7656 91.739586 601.53125 92.145836Q601.2969 92.56771 600.7969 92.78646L600.5 92.333336Q600.8281 92.19271 600.9844 91.895836Q601.1406 91.614586 601.1719 91.083336L600.5625 91.083336ZM606.2969 83.708336L606.2969 82.489586L607.3594 82.489586L607.3594 83.708336L606.2969 83.708336ZM606.2969 91.083336L606.2969 84.864586L607.3594 84.864586L607.3594 91.083336L606.2969 91.083336ZM609.5781 86.06771L609.5781 84.864586L610.78125 84.864586L610.78125 86.06771L609.5781 86.06771ZM609.5781 91.083336L609.5781 89.88021L610.78125 89.88021L610.78125 91.083336L609.5781 91.083336ZM612.0 86.84896Q612.0 85.31771 612.3125 84.395836Q612.625 83.458336 613.2344 82.958336Q613.8594 82.458336 614.7969 82.458336Q615.4844 82.458336 616.0 82.739586Q616.53125 83.020836 616.875 83.552086Q617.21875 84.06771 617.40625 84.81771Q617.59375 85.56771 617.59375 86.84896Q617.59375 88.364586 617.28125 89.28646Q616.9844 90.208336 616.3594 90.72396Q615.75 91.22396 614.7969 91.22396Q613.5625 91.22396 612.84375 90.333336Q612.0 89.270836 612.0 86.84896ZM613.0781 86.84896Q613.0781 88.958336 613.5781 89.66146Q614.0781 90.364586 614.7969 90.364586Q615.53125 90.364586 616.0156 89.66146Q616.5156 88.958336 616.5156 86.84896Q616.5156 84.72396 616.0156 84.03646Q615.53125 83.333336 614.78125 83.333336Q614.0625 83.333336 613.625 83.94271Q613.0781 84.72396 613.0781 86.84896ZM619.59375 91.083336L619.59375 89.88021L620.7969 89.88021L620.7969 91.083336L619.59375 91.083336ZM622.0 88.81771L623.0625 88.677086Q623.2344 89.56771 623.6719 89.97396Q624.1094 90.364586 624.7344 90.364586Q625.4844 90.364586 626.0 89.84896Q626.5156 89.333336 626.5156 88.56771Q626.5156 87.84896 626.03125 87.38021Q625.5625 86.895836 624.8281 86.895836Q624.53125 86.895836 624.0781 87.020836L624.2031 86.083336Q624.3125 86.09896 624.375 86.09896Q625.0469 86.09896 625.5781 85.75521Q626.125 85.395836 626.125 84.66146Q626.125 84.083336 625.7344 83.708336Q625.34375 83.31771 624.71875 83.31771Q624.1094 83.31771 623.6875 83.708336Q623.28125 84.09896 623.1719 84.864586L622.1094 84.677086Q622.2969 83.63021 622.9844 83.052086Q623.6719 82.458336 624.6875 82.458336Q625.3906 82.458336 625.9844 82.770836Q626.5781 83.06771 626.8906 83.583336Q627.2031 84.09896 627.2031 84.69271Q627.2031 85.239586 626.90625 85.708336Q626.6094 86.16146 626.03125 86.427086Q626.78125 86.59896 627.2031 87.16146Q627.625 87.708336 627.625 88.552086Q627.625 89.677086 626.7969 90.458336Q625.9844 91.239586 624.7344 91.239586Q623.6094 91.239586 622.8594 90.56771Q622.1094 89.88021 622.0 88.81771ZM629.5625 91.083336L629.5625 89.88021L630.7656 89.88021L630.7656 91.083336Q630.7656 91.739586 630.53125 92.145836Q630.2969 92.56771 629.7969 92.78646L629.5 92.333336Q629.8281 92.19271 629.9844 91.895836Q630.1406 91.614586 630.1719 91.083336L629.5625 91.083336ZM639.3281 91.083336L639.3281 90.302086Q638.7344 91.22396 637.59375 91.22396Q636.84375 91.22396 636.21875 90.81771Q635.59375 90.395836 635.25 89.66146Q634.90625 88.927086 634.90625 87.97396Q634.90625 87.052086 635.21875 86.28646Q635.53125 85.520836 636.15625 85.13021Q636.78125 84.72396 637.5469 84.72396Q638.1094 84.72396 638.5469 84.958336Q638.9844 85.19271 639.2656 85.56771L639.2656 82.489586L640.3125 82.489586L640.3125 91.083336L639.3281 91.083336ZM636.0 87.97396Q636.0 89.177086 636.5 89.770836Q637.0 90.34896 637.6875 90.34896Q638.375 90.34896 638.8594 89.78646Q639.34375 89.22396 639.34375 88.06771Q639.34375 86.78646 638.84375 86.19271Q638.3594 85.59896 637.6406 85.59896Q636.9375 85.59896 636.46875 86.177086Q636.0 86.739586 636.0 87.97396ZM642.5781 86.06771L642.5781 84.864586L643.78125 84.864586L643.78125 86.06771L642.5781 86.06771ZM642.5781 91.083336L642.5781 89.88021L643.78125 89.88021L643.78125 91.083336L642.5781 91.083336ZM645.0 86.84896Q645.0 85.31771 645.3125 84.395836Q645.625 83.458336 646.2344 82.958336Q646.8594 82.458336 647.7969 82.458336Q648.4844 82.458336 649.0 82.739586Q649.53125 83.020836 649.875 83.552086Q650.21875 84.06771 650.40625 84.81771Q650.59375 85.56771 650.59375 86.84896Q650.59375 88.364586 650.28125 89.28646Q649.9844 90.208336 649.3594 90.72396Q648.75 91.22396 647.7969 91.22396Q646.5625 91.22396 645.84375 90.333336Q645.0 89.270836 645.0 86.84896ZM646.0781 86.84896Q646.0781 88.958336 646.5781 89.66146Q647.0781 90.364586 647.7969 90.364586Q648.53125 90.364586 649.0156 89.66146Q649.5156 88.958336 649.5156 86.84896Q649.5156 84.72396 649.0156 84.03646Q648.53125 83.333336 647.78125 83.333336Q647.0625 83.333336 646.625 83.94271Q646.0781 84.72396 646.0781 86.84896ZM652.59375 91.083336L652.59375 89.88021L653.7969 89.88021L653.7969 91.083336L652.59375 91.083336ZM655.0 88.81771L656.0625 88.677086Q656.2344 89.56771 656.6719 89.97396Q657.1094 90.364586 657.7344 90.364586Q658.4844 90.364586 659.0 89.84896Q659.5156 89.333336 659.5156 88.56771Q659.5156 87.84896 659.03125 87.38021Q658.5625 86.895836 657.8281 86.895836Q657.53125 86.895836 657.0781 87.020836L657.2031 86.083336Q657.3125 86.09896 657.375 86.09896Q658.0469 86.09896 658.5781 85.75521Q659.125 85.395836 659.125 84.66146Q659.125 84.083336 658.7344 83.708336Q658.34375 83.31771 657.71875 83.31771Q657.1094 83.31771 656.6875 83.708336Q656.28125 84.09896 656.1719 84.864586L655.1094 84.677086Q655.2969 83.63021 655.9844 83.052086Q656.6719 82.458336 657.6875 82.458336Q658.3906 82.458336 658.9844 82.770836Q659.5781 83.06771 659.8906 83.583336Q660.2031 84.09896 660.2031 84.69271Q660.2031 85.239586 659.90625 85.708336Q659.6094 86.16146 659.03125 86.427086Q659.78125 86.59896 660.2031 87.16146Q660.625 87.708336 660.625 88.552086Q660.625 89.677086 659.7969 90.458336Q658.9844 91.239586 657.7344 91.239586Q656.6094 91.239586 655.8594 90.56771Q655.1094 89.88021 655.0 88.81771Z" fill-rule="nonzero"/><path fill="#757575" d="M34.9625 56.61875L34.9625 42.275L36.571877 42.275L36.571877 43.61875Q37.134377 42.8375 37.8375 42.446877Q38.55625 42.040627 39.571877 42.040627Q40.9 42.040627 41.915627 42.728127Q42.93125 43.415627 43.446877 44.665627Q43.978127 45.9 43.978127 47.384377Q43.978127 48.978127 43.4 50.259377Q42.8375 51.525 41.74375 52.2125Q40.65 52.884377 39.446877 52.884377Q38.571877 52.884377 37.86875 52.509377Q37.18125 52.134377 36.728127 51.571877L36.728127 56.61875L34.9625 56.61875ZM36.55625 47.525Q36.55625 49.525 37.36875 50.478127Q38.18125 51.43125 39.3375 51.43125Q40.509377 51.43125 41.3375 50.446877Q42.18125 49.4625 42.18125 47.36875Q42.18125 45.4 41.353127 44.415627Q40.540627 43.415627 39.415627 43.415627Q38.290627 43.415627 37.415627 44.478127Q36.55625 45.525 36.55625 47.525ZM46.4625 44.275L46.4625 42.275L48.4625 42.275L48.4625 44.275L46.4625 44.275ZM46.4625 52.65L46.4625 50.65L48.4625 50.65L48.4625 52.65L46.4625 52.65ZM51.478127 45.5875Q51.478127 43.05625 51.99375 41.509377Q52.525 39.946877 53.55625 39.11875Q54.5875 38.275 56.15 38.275Q57.30625 38.275 58.165627 38.74375Q59.040627 39.196877 59.603127 40.071877Q60.165627 40.946877 60.49375 42.2125Q60.821877 43.4625 60.821877 45.5875Q60.821877 48.103127 60.290627 49.65Q59.775 51.196877 58.74375 52.05625Q57.728127 52.9 56.15 52.9Q54.071877 52.9 52.9 51.415627Q51.478127 49.61875 51.478127 45.5875ZM53.290627 45.5875Q53.290627 49.11875 54.103127 50.290627Q54.93125 51.446877 56.15 51.446877Q57.353127 51.446877 58.18125 50.275Q59.009377 49.103127 59.009377 45.5875Q59.009377 42.05625 58.18125 40.9Q57.353127 39.728127 56.134377 39.728127Q54.915627 39.728127 54.196877 40.759377Q53.290627 42.05625 53.290627 45.5875ZM63.4625 52.65L63.4625 50.65L65.4625 50.65L65.4625 52.65L63.4625 52.65ZM75.10313 52.65L73.3375 52.65L73.3375 41.446877Q72.7125 42.05625 71.68125 42.665627Q70.65 43.259377 69.82188 43.571877L69.82188 41.86875Q71.30625 41.18125 72.4 40.196877Q73.50938 39.196877 73.9625 38.275L75.10313 38.275L75.10313 52.65ZM80.43125 52.65L80.43125 50.65L82.43125 50.65L82.43125 52.65Q82.43125 53.759377 82.04063 54.43125Q81.65 55.11875 80.80625 55.478127L80.30625 54.728127Q80.86875 54.49375 81.13438 54.009377Q81.4 53.540627 81.43125 52.65L80.43125 52.65ZM91.97813 40.353127L91.97813 38.3375L93.74375 38.3375L93.74375 40.353127L91.97813 40.353127ZM91.97813 52.65L91.97813 42.275L93.74375 42.275L93.74375 52.65L91.97813 52.65ZM96.4625 44.275L96.4625 42.275L98.4625 42.275L98.4625 44.275L96.4625 44.275ZM96.4625 52.65L96.4625 50.65L98.4625 50.65L98.4625 52.65L96.4625 52.65ZM101.47813 45.5875Q101.47813 43.05625 101.99375 41.509377Q102.525 39.946877 103.55625 39.11875Q104.5875 38.275 106.15 38.275Q107.30625 38.275 108.16563 38.74375Q109.04063 39.196877 109.60313 40.071877Q110.16563 40.946877 110.49375 42.2125Q110.82188 43.4625 110.82188 45.5875Q110.82188 48.103127 110.29063 49.65Q109.775 51.196877 108.74375 52.05625Q107.72813 52.9 106.15 52.9Q104.07188 52.9 102.9 51.415627Q101.47813 49.61875 101.47813 45.5875ZM103.29063 45.5875Q103.29063 49.11875 104.10313 50.290627Q104.93125 51.446877 106.15 51.446877Q107.35313 51.446877 108.18125 50.275Q109.00938 49.103127 109.00938 45.5875Q109.00938 42.05625 108.18125 40.9Q107.35313 39.728127 106.13438 39.728127Q104.91563 39.728127 104.19688 40.759377Q103.29063 42.05625 103.29063 45.5875ZM113.4625 52.65L113.4625 50.65L115.4625 50.65L115.4625 52.65L113.4625 52.65ZM125.10313 52.65L123.3375 52.65L123.3375 41.446877Q122.7125 42.05625 121.68125 42.665627Q120.65 43.259377 119.82188 43.571877L119.82188 41.86875Q121.30625 41.18125 122.4 40.196877Q123.50938 39.196877 123.9625 38.275L125.10313 38.275L125.10313 52.65ZM130.43124 52.65L130.43124 50.65L132.43124 50.65L132.43124 52.65Q132.43124 53.759377 132.04062 54.43125Q131.65 55.11875 130.80624 55.478127L130.30624 54.728127Q130.86874 54.49375 131.13437 54.009377Q131.4 53.540627 131.43124 52.65L130.43124 52.65ZM148.69687 52.65L148.69687 51.3375Q147.7125 52.884377 145.79062 52.884377Q144.55624 52.884377 143.50937 52.196877Q142.47812 51.509377 141.9 50.290627Q141.3375 49.071877 141.3375 47.478127Q141.3375 45.915627 141.85312 44.65Q142.36874 43.384377 143.4 42.7125Q144.44687 42.040627 145.7125 42.040627Q146.65 42.040627 147.38437 42.446877Q148.11874 42.8375 148.5875 43.4625L148.5875 38.3375L150.32187 38.3375L150.32187 52.65L148.69687 52.65ZM143.13437 47.478127Q143.13437 49.4625 143.97812 50.446877Q144.82187 51.43125 145.9625 51.43125Q147.11874 51.43125 147.91562 50.49375Q148.72812 49.55625 148.72812 47.61875Q148.72812 45.49375 147.9 44.49375Q147.0875 43.49375 145.88437 43.49375Q144.7125 43.49375 143.91562 44.4625Q143.13437 45.415627 143.13437 47.478127ZM153.4625 44.275L153.4625 42.275L155.4625 42.275L155.4625 44.275L153.4625 44.275ZM153.4625 52.65L153.4625 50.65L155.4625 50.65L155.4625 52.65L153.4625 52.65ZM158.47812 45.5875Q158.47812 43.05625 158.99374 41.509377Q159.525 39.946877 160.55624 39.11875Q161.5875 38.275 163.15 38.275Q164.30624 38.275 165.16562 38.74375Q166.04062 39.196877 166.60312 40.071877Q167.16562 40.946877 167.49374 42.2125Q167.82187 43.4625 167.82187 45.5875Q167.82187 48.103127 167.29062 49.65Q166.775 51.196877 165.74374 52.05625Q164.72812 52.9 163.15 52.9Q161.07187 52.9 159.9 51.415627Q158.47812 49.61875 158.47812 45.5875ZM160.29062 45.5875Q160.29062 49.11875 161.10312 50.290627Q161.93124 51.446877 163.15 51.446877Q164.35312 51.446877 165.18124 50.275Q166.00937 49.103127 166.00937 45.5875Q166.00937 42.05625 165.18124 40.9Q164.35312 39.728127 163.13437 39.728127Q161.91562 39.728127 161.19687 40.759377Q160.29062 42.05625 160.29062 45.5875ZM170.4625 52.65L170.4625 50.65L172.4625 50.65L172.4625 52.65L170.4625 52.65ZM175.49374 48.86875L177.24374 48.634377Q177.55624 50.134377 178.275 50.790627Q179.00937 51.446877 180.05624 51.446877Q181.29062 51.446877 182.13437 50.5875Q182.99374 49.728127 182.99374 48.4625Q182.99374 47.24375 182.19687 46.4625Q181.41562 45.68125 180.19687 45.68125Q179.69687 45.68125 178.9625 45.86875L179.15 44.321877Q179.32187 44.353127 179.43124 44.353127Q180.55624 44.353127 181.44687 43.775Q182.35312 43.18125 182.35312 41.9625Q182.35312 40.99375 181.69687 40.353127Q181.04062 39.7125 180.00937 39.7125Q178.99374 39.7125 178.30624 40.36875Q177.61874 41.009377 177.43124 42.290627L175.66562 41.978127Q175.99374 40.2125 177.13437 39.24375Q178.275 38.275 179.97812 38.275Q181.15 38.275 182.13437 38.775Q183.11874 39.275 183.63437 40.15Q184.16562 41.025 184.16562 41.99375Q184.16562 42.915627 183.66562 43.68125Q183.16562 44.446877 182.19687 44.9Q183.4625 45.18125 184.16562 46.11875Q184.86874 47.040627 184.86874 48.415627Q184.86874 50.290627 183.49374 51.603127Q182.13437 52.9 180.04062 52.9Q178.15 52.9 176.9 51.775Q175.66562 50.65 175.49374 48.86875ZM199.74374 51.36875Q198.75937 52.196877 197.85312 52.540627Q196.94687 52.884377 195.91562 52.884377Q194.2125 52.884377 193.29062 52.05625Q192.36874 51.2125 192.36874 49.915627Q192.36874 49.15 192.7125 48.525Q193.07187 47.9 193.63437 47.525Q194.19687 47.134377 194.9 46.93125Q195.41562 46.80625 196.4625 46.665627Q198.5875 46.415627 199.5875 46.071877Q199.60312 45.7125 199.60312 45.603127Q199.60312 44.540627 199.10312 44.0875Q198.43124 43.49375 197.10312 43.49375Q195.85312 43.49375 195.25937 43.93125Q194.68124 44.36875 194.4 45.478127L192.68124 45.24375Q192.91562 44.134377 193.44687 43.4625Q193.97812 42.775 194.99374 42.415627Q196.00937 42.040627 197.35312 42.040627Q198.68124 42.040627 199.50937 42.353127Q200.3375 42.665627 200.72812 43.15Q201.11874 43.61875 201.275 44.3375Q201.36874 44.790627 201.36874 45.9625L201.36874 48.30625Q201.36874 50.759377 201.47812 51.415627Q201.5875 52.05625 201.93124 52.65L200.0875 52.65Q199.82187 52.103127 199.74374 51.36875ZM199.5875 47.446877Q198.63437 47.8375 196.7125 48.103127Q195.63437 48.259377 195.18124 48.4625Q194.74374 48.65 194.49374 49.025Q194.24374 49.4 194.24374 49.86875Q194.24374 50.571877 194.775 51.040627Q195.30624 51.509377 196.3375 51.509377Q197.35312 51.509377 198.13437 51.071877Q198.93124 50.61875 199.30624 49.853127Q199.5875 49.24375 199.5875 48.0875L199.5875 47.446877ZM203.9625 52.65L203.9625 42.275L205.55624 42.275L205.55624 43.759377Q206.69687 42.040627 208.85312 42.040627Q209.79062 42.040627 210.57187 42.384377Q211.36874 42.7125 211.75937 43.259377Q212.15 43.80625 212.30624 44.55625Q212.4 45.05625 212.4 46.275L212.4 52.65L210.63437 52.65L210.63437 46.3375Q210.63437 45.259377 210.43124 44.728127Q210.22812 44.196877 209.69687 43.884377Q209.18124 43.571877 208.47812 43.571877Q207.35312 43.571877 206.54062 44.290627Q205.72812 44.99375 205.72812 46.978127L205.72812 52.65L203.9625 52.65ZM221.69687 52.65L221.69687 51.3375Q220.7125 52.884377 218.79062 52.884377Q217.55624 52.884377 216.50937 52.196877Q215.47812 51.509377 214.9 50.290627Q214.3375 49.071877 214.3375 47.478127Q214.3375 45.915627 214.85312 44.65Q215.36874 43.384377 216.4 42.7125Q217.44687 42.040627 218.7125 42.040627Q219.65 42.040627 220.38437 42.446877Q221.11874 42.8375 221.5875 43.4625L221.5875 38.3375L223.32187 38.3375L223.32187 52.65L221.69687 52.65ZM216.13437 47.478127Q216.13437 49.4625 216.97812 50.446877Q217.82187 51.43125 218.9625 51.43125Q220.11874 51.43125 220.91562 50.49375Q221.72812 49.55625 221.72812 47.61875Q221.72812 45.49375 220.9 44.49375Q220.0875 43.49375 218.88437 43.49375Q217.7125 43.49375 216.91562 44.4625Q216.13437 45.415627 216.13437 47.478127ZM231.9625 56.61875L231.9625 42.275L233.57187 42.275L233.57187 43.61875Q234.13437 42.8375 234.8375 42.446877Q235.55624 42.040627 236.57187 42.040627Q237.9 42.040627 238.91562 42.728127Q239.93124 43.415627 240.44687 44.665627Q240.97812 45.9 240.97812 47.384377Q240.97812 48.978127 240.4 50.259377Q239.8375 51.525 238.74374 52.2125Q237.65 52.884377 236.44687 52.884377Q235.57187 52.884377 234.86874 52.509377Q234.18124 52.134377 233.72812 51.571877L233.72812 56.61875L231.9625 56.61875ZM233.55624 47.525Q233.55624 49.525 234.36874 50.478127Q235.18124 51.43125 236.3375 51.43125Q237.50937 51.43125 238.3375 50.446877Q239.18124 49.4625 239.18124 47.36875Q239.18124 45.4 238.35312 44.415627Q237.54062 43.415627 236.41562 43.415627Q235.29062 43.415627 234.41562 44.478127Q233.55624 45.525 233.55624 47.525ZM243.4625 44.275L243.4625 42.275L245.4625 42.275L245.4625 44.275L243.4625 44.275ZM243.4625 52.65L243.4625 50.65L245.4625 50.65L245.4625 52.65L243.4625 52.65ZM248.47812 45.5875Q248.47812 43.05625 248.99374 41.509377Q249.525 39.946877 250.55624 39.11875Q251.5875 38.275 253.15 38.275Q254.30624 38.275 255.16562 38.74375Q256.04062 39.196877 256.60312 40.071877Q257.16562 40.946877 257.49374 42.2125Q257.82187 43.4625 257.82187 45.5875Q257.82187 48.103127 257.29062 49.65Q256.775 51.196877 255.74374 52.05625Q254.72812 52.9 253.15 52.9Q251.07187 52.9 249.9 51.415627Q248.47812 49.61875 248.47812 45.5875ZM250.29062 45.5875Q250.29062 49.11875 251.10312 50.290627Q251.93124 51.446877 253.15 51.446877Q254.35312 51.446877 255.18124 50.275Q256.00937 49.103127 256.00937 45.5875Q256.00937 42.05625 255.18124 40.9Q254.35312 39.728127 253.13437 39.728127Q251.91562 39.728127 251.19687 40.759377Q250.29062 42.05625 250.29062 45.5875ZM260.4625 52.65L260.4625 50.65L262.4625 50.65L262.4625 52.65L260.4625 52.65ZM272.10312 52.65L270.3375 52.65L270.3375 41.446877Q269.7125 42.05625 268.68124 42.665627Q267.65 43.259377 266.82187 43.571877L266.82187 41.86875Q268.30624 41.18125 269.4 40.196877Q270.50937 39.196877 270.9625 38.275L272.10312 38.275L272.10312 52.65ZM277.43124 52.65L277.43124 50.65L279.43124 50.65L279.43124 52.65Q279.43124 53.759377 279.04062 54.43125Q278.65 55.11875 277.80624 55.478127L277.30624 54.728127Q277.86874 54.49375 278.13437 54.009377Q278.4 53.540627 278.43124 52.65L277.43124 52.65ZM288.97812 40.353127L288.97812 38.3375L290.74374 38.3375L290.74374 40.353127L288.97812 40.353127ZM288.97812 52.65L288.97812 42.275L290.74374 42.275L290.74374 52.65L288.97812 52.65ZM293.4625 44.275L293.4625 42.275L295.4625 42.275L295.4625 44.275L293.4625 44.275ZM293.4625 52.65L293.4625 50.65L295.4625 50.65L295.4625 52.65L293.4625 52.65ZM298.47812 45.5875Q298.47812 43.05625 298.99374 41.509377Q299.525 39.946877 300.55624 39.11875Q301.5875 38.275 303.15 38.275Q304.30624 38.275 305.16562 38.74375Q306.04062 39.196877 306.60312 40.071877Q307.16562 40.946877 307.49374 42.2125Q307.82187 43.4625 307.82187 45.5875Q307.82187 48.103127 307.29062 49.65Q306.775 51.196877 305.74374 52.05625Q304.72812 52.9 303.15 52.9Q301.07187 52.9 299.9 51.415627Q298.47812 49.61875 298.47812 45.5875ZM300.29062 45.5875Q300.29062 49.11875 301.10312 50.290627Q301.93124 51.446877 303.15 51.446877Q304.35312 51.446877 305.18124 50.275Q306.00937 49.103127 306.00937 45.5875Q306.00937 42.05625 305.18124 40.9Q304.35312 39.728127 303.13437 39.728127Q301.91562 39.728127 301.19687 40.759377Q300.29062 42.05625 300.29062 45.5875ZM310.4625 52.65L310.4625 50.65L312.4625 50.65L312.4625 52.65L310.4625 52.65ZM315.49374 48.86875L317.24374 48.634377Q317.55624 50.134377 318.275 50.790627Q319.00937 51.446877 320.05624 51.446877Q321.29062 51.446877 322.13437 50.5875Q322.99374 49.728127 322.99374 48.4625Q322.99374 47.24375 322.19687 46.4625Q321.41562 45.68125 320.19687 45.68125Q319.69687 45.68125 318.9625 45.86875L319.15 44.321877Q319.32187 44.353127 319.43124 44.353127Q320.55624 44.353127 321.44687 43.775Q322.35312 43.18125 322.35312 41.9625Q322.35312 40.99375 321.69687 40.353127Q321.04062 39.7125 320.00937 39.7125Q318.99374 39.7125 318.30624 40.36875Q317.61874 41.009377 317.43124 42.290627L315.66562 41.978127Q315.99374 40.2125 317.13437 39.24375Q318.275 38.275 319.97812 38.275Q321.15 38.275 322.13437 38.775Q323.11874 39.275 323.63437 40.15Q324.16562 41.025 324.16562 41.99375Q324.16562 42.915627 323.66562 43.68125Q323.16562 44.446877 322.19687 44.9Q323.4625 45.18125 324.16562 46.11875Q324.86874 47.040627 324.86874 48.415627Q324.86874 50.290627 323.49374 51.603127Q322.13437 52.9 320.04062 52.9Q318.15 52.9 316.9 51.775Q315.66562 50.65 315.49374 48.86875ZM327.43124 52.65L327.43124 50.65L329.43124 50.65L329.43124 52.65Q329.43124 53.759377 329.04062 54.43125Q328.65 55.11875 327.80624 55.478127L327.30624 54.728127Q327.86874 54.49375 328.13437 54.009377Q328.4 53.540627 328.43124 52.65L327.43124 52.65ZM345.69687 52.65L345.69687 51.3375Q344.7125 52.884377 342.79062 52.884377Q341.55624 52.884377 340.50937 52.196877Q339.47812 51.509377 338.9 50.290627Q338.3375 49.071877 338.3375 47.478127Q338.3375 45.915627 338.85312 44.65Q339.36874 43.384377 340.4 42.7125Q341.44687 42.040627 342.7125 42.040627Q343.65 42.040627 344.38437 42.446877Q345.11874 42.8375 345.5875 43.4625L345.5875 38.3375L347.32187 38.3375L347.32187 52.65L345.69687 52.65ZM340.13437 47.478127Q340.13437 49.4625 340.97812 50.446877Q341.82187 51.43125 342.9625 51.43125Q344.11874 51.43125 344.91562 50.49375Q345.72812 49.55625 345.72812 47.61875Q345.72812 45.49375 344.9 44.49375Q344.0875 43.49375 342.88437 43.49375Q341.7125 43.49375 340.91562 44.4625Q340.13437 45.415627 340.13437 47.478127ZM350.4625 44.275L350.4625 42.275L352.4625 42.275L352.4625 44.275L350.4625 44.275ZM350.4625 52.65L350.4625 50.65L352.4625 50.65L352.4625 52.65L350.4625 52.65ZM355.47812 45.5875Q355.47812 43.05625 355.99374 41.509377Q356.525 39.946877 357.55624 39.11875Q358.5875 38.275 360.15 38.275Q361.30624 38.275 362.16562 38.74375Q363.04062 39.196877 363.60312 40.071877Q364.16562 40.946877 364.49374 42.2125Q364.82187 43.4625 364.82187 45.5875Q364.82187 48.103127 364.29062 49.65Q363.775 51.196877 362.74374 52.05625Q361.72812 52.9 360.15 52.9Q358.07187 52.9 356.9 51.415627Q355.47812 49.61875 355.47812 45.5875ZM357.29062 45.5875Q357.29062 49.11875 358.10312 50.290627Q358.93124 51.446877 360.15 51.446877Q361.35312 51.446877 362.18124 50.275Q363.00937 49.103127 363.00937 45.5875Q363.00937 42.05625 362.18124 40.9Q361.35312 39.728127 360.13437 39.728127Q358.91562 39.728127 358.19687 40.759377Q357.29062 42.05625 357.29062 45.5875ZM367.4625 52.65L367.4625 50.65L369.4625 50.65L369.4625 52.65L367.4625 52.65ZM372.49374 48.86875L374.24374 48.634377Q374.55624 50.134377 375.275 50.790627Q376.00937 51.446877 377.05624 51.446877Q378.29062 51.446877 379.13437 50.5875Q379.99374 49.728127 379.99374 48.4625Q379.99374 47.24375 379.19687 46.4625Q378.41562 45.68125 377.19687 45.68125Q376.69687 45.68125 375.9625 45.86875L376.15 44.321877Q376.32187 44.353127 376.43124 44.353127Q377.55624 44.353127 378.44687 43.775Q379.35312 43.18125 379.35312 41.9625Q379.35312 40.99375 378.69687 40.353127Q378.04062 39.7125 377.00937 39.7125Q375.99374 39.7125 375.30624 40.36875Q374.61874 41.009377 374.43124 42.290627L372.66562 41.978127Q372.99374 40.2125 374.13437 39.24375Q375.275 38.275 376.97812 38.275Q378.15 38.275 379.13437 38.775Q380.11874 39.275 380.63437 40.15Q381.16562 41.025 381.16562 41.99375Q381.16562 42.915627 380.66562 43.68125Q380.16562 44.446877 379.19687 44.9Q380.4625 45.18125 381.16562 46.11875Q381.86874 47.040627 381.86874 48.415627Q381.86874 50.290627 380.49374 51.603127Q379.13437 52.9 377.04062 52.9Q375.15 52.9 373.9 51.775Q372.66562 50.65 372.49374 48.86875Z" fill-rule="nonzero"/></svg>